<?xml version="1.0" encoding="UTF-8"?>
<svg version="1.1" viewBox="0 0 1080 1080" width="1080" height="1080" xmlns="http://www.w3.org/2000/svg">
<path transform="translate(45,459)" d="m0 0h93l17 8 10 9 4 5 5 12 1 7v11l-4 11-9 10-4 4 10 5 6 5 7 11 4 15v8l-3 13-6 11-7 8-14 7-10 2h-17l-10-3-10-9-7-14v-2l9 3 8 2h10l12-2 8-5 5-9 1-9-2-9-4-6-8-5-4-1h-35v-27l33-2 7-6 2-5v-11l-4-8-6-5-59-1 1 99 4 16 6 10 4 4v2h2v2h-9l-9-3-10-6-9-10-8-15-1-3z" fill="#858585"/>
<path transform="translate(567,299)" d="m0 0h23l15 4 10 6 7 8-2 6-8 14-11 13-11 8-5 3 8 3 14 5 14 9 10 9 7 7 6 10-3 7-7 9-9 9-17 12-19 10-14 5-15 4h-4l2 9-7-6-8-9-6-10-5-13-1-7v-15l2-1 7 11v2h2l6 8 9 6 6 1 16-3 12-5 11-8 7-7 7-10 1-4-12-10-9-6-14-6-12-2h-15l-20 2h-8l4-3 29-15 13-9 8-9 3-7 1-5v-8l-5-1h-20l-15 3-16 5-13 5h-3l-5 25-1 11v13l2 19 6 22 10 23 12 21 8 11 2 5h2l8 11-2 1-9-6-14-14-13-17-10-16-8-16-6-15-3-9-3-13-1-8v-26l2-12 5-15 4-8 11-5 15-6 25-7z" fill="#858585"/>
<path transform="translate(646,467)" d="m0 0h25l1 141-1 1h-23l-1-1-1-8-8 6-10 5-8 2h-15l-12-3-14-7-8-7-7-14-2-10v-17l2-12 5-10 9-9 10-6 15-3h15l10 2 12 6 5 5zm-37 66-12 5-7 7-5 9-1 4v13l3 8 6 9 9 6 10 3h8l10-3 9-6 6-8 3-8v-14l-3-9-9-10-9-5-4-1z" fill="#858585"/>
<path transform="translate(853,615)" d="m0 0h5l-1 9-7 33v5l6-1 1-1 2-12 5-10 8-7 3-1h9l5 4 2 8 8-1 2-4 7-6 3-1h7l3 2 1-1h12l-7 33-1 3 6-4 4-9 5-23h12l-2 12-3 14v5l5-1 3-7 5-23h12l-2 12-3 14v5l6-1 4-16 6-10 6-4 3-1h9l5 5-1 8-3 5-8 5-7 1 1 9h8l6-3 8-10 6-14 2-6 9-2h4l1 15v19l-5 6-4 2h-12l-7-6-10 6h-12l-4-2-3-3-5 4-2 1h-9l-5-5-6 5h-9l-5-5-5 4-4 2-4 12-5 5-5 2-8-1-4-5 1-6 5-5 7-3v-2l-3 2h-10l-5-5-1-2v-11l1-6-4 1-4 13-7 8-4 2h-11l-7-5-4 4-3 1h-9l-4-4-2-3-9 6-2 1h-12l-4-2-3-6v-10l4-11 5-7 8-4h9l5 5-1 8-3 5-8 5-7 1 1 9h8l6-3 5-6 8-37zm-26 19-5 5-3 8v3l5-1 6-7v-8zm170 0-5 5-3 8v3l5-1 6-7v-8zm-119 1-4 5-4 11v10l1 2h5l5-6 2-6v-5l-1-4 2-5-1-2zm37 0-5 5-4 11v10l2 2 5-1 4-5 4-20-2-2zm104 5-5 11v7l-4 1 1 4 1 1h6l3-3 1-2-1-17zm-109 35-5 4v4l3 1 4-5v-4z" fill="#858585"/>
<path transform="translate(781,514)" d="m0 0h13l15 3 11 6 8 8 5 10 3 14v17h-78l3 11 4 5 9 4 10 2h16l14-3 11-4h2l1 5v15l-20 5-10 1h-15l-15-2-10-4-9-7-6-7-5-11-2-8v-15l3-16 6-12 9-8 10-5 11-3zm3 20-10 2-8 4-4 5-3 9 1 3h25l28-1v-8l-3-6-5-4-8-3z" fill="#858585"/>
<path transform="translate(250,514)" d="m0 0h13l14 3 16 8 9 9 6 10 3 9 1 10-3 19-4 9-6 9-8 6-12 5-11 2h-24l-13-4-9-5-7-6-6-9-5-12-1-5v-16l4-13 6-10 9-9 14-7zm2 19-11 4-8 6-6 10-1 3v16l5 10 8 8 9 4 12 1 9-2 8-5 8-9 3-8v-14l-4-9-5-7-10-6-7-2z" fill="#858585"/>
<path transform="translate(494,515)" d="m0 0h21l12 4 8 5 6 7 2 5 1 51v21l-1 1h-24l-1-1-1-65-2-4-10-4-9-1-12 3-8 5-4 5v62h-25v-92h23l1 1 1 11 6-7 12-6z" fill="#858585"/>
<path transform="translate(421,516)" d="m0 0h6l1 1 1 57v35h-23l-1-10-10 8-11 5-5 1h-20l-10-3-8-6-5-8-3-10v-68h23l1 45 1 22 4 6 5 2 14 1 10-2 7-4 6-7 1-64z" fill="#858585"/>
<path transform="translate(888,515)" d="m0 0h14l22 3 5 2v20l-5-1-9-4-15-2-10 1-8 3-2 3v7l4 3 15 4 16 4 10 5 6 5 4 7 1 4v7l-3 10-4 6-7 6-7 3-17 2h-17l-12-2-13-5-2-2v-10l1-9 11 3 16 4 6 1h15l7-3v-7l-5-6-10-3-17-4-14-8-8-9-2-7 1-12 3-6 8-7 13-5z" fill="#858585"/>
<path transform="translate(983,516)" d="m0 0h21l19 3 4 1v22l-10-5-7-2-16-1-10 2-5 3-1 7 1 3 10 4 22 5 14 7 7 8 2 5v11l-4 11-5 6-9 5-12 2-17 1-14-1-16-5-4-2v-20l9 2 14 4 14 2h9l8-2 2-3-1-6-5-5-8-3-17-4-14-7-6-5-5-9v-14l4-8 7-6 9-4z" fill="#858585"/>
<path transform="translate(489,408)" d="m0 0 2 2 8 23 12 25 8 12 11 14 11 11 13 10 4 1 15-14 8-9 9-13 10-17 18-13 7-4-1 8-6 23-5 11-6 12-13 16-9 9-19 14-10 6-8-6-11-9-15-15-12-16-11-18-9-17-9-23-3-11 7-7z" fill="#858585"/>
<path transform="translate(690,467)" d="m0 0h25v142h-24l-1-87z" fill="#858585"/>
<path transform="translate(548,381)" d="m0 0h24l11 2 16 8 12 11 1 4-11 12-4 3h-2l-4-10-5-6-11-4-5-1h-25l-16 4-14 5-4-8-1-11 16-5 14-3z" fill="#858585"/>
<path transform="translate(797,629)" d="m0 0h6l2 3v12l-4 13-6 8-5 4-2 1h-11l-4-4v-2h-2l-1 3-5 3h-9l-5-5-5 4-2 1h-9l-5-5-1-2v-11l4-11 7-8 6-3h7l3 2 1-1h12l-5 24v7h6l2-6 4-16 2-9h12l-2 12-3 14v5l5-1 4-4 5-12 2-8-5-1-1-4zm-47 6-5 5-4 11v10l2 2 5-1 4-5 4-20-2-2z" fill="#858585"/>
<path transform="translate(682,611)" d="m0 0h17l15 1 6-1-1 6-3 3-2 1h-10l-6-1-11 49-1 1h-11l2-13 9-39-10 2-4 5-1 3v11l-6-1-2-2v-11l5-8 10-5z" fill="#858585"/>
<path transform="translate(705,631)" d="m0 0h12l1 2 4-2h7l2 2v7l-3 2-5-1-1-4-6 3-7 30h-12l2-12z" fill="#858585"/>
<path transform="translate(484,344)" d="m0 0h1v35l3 19 1 5-9 10-3 2-1-11v-25l3-22z" fill="#858585"/>
<path transform="translate(641,419)" d="m0 0 1 4-3 12-7 18-11 20-5 7-1-2 9-25 3-12 2-10z" fill="#858585"/>
<path transform="translate(547,292)" d="m0 0h25l5 1v1l-24 3-21 6-20 8-4 1 5-5 12-8 14-5z" fill="#858585"/>
<path transform="translate(611,368)" d="m0 0 6 1 14 7 6 4v2l4 2 2-15h1l1 12v13h-2l-5-5-10-9-15-10z" fill="#858585"/>
<path transform="translate(632,336)" d="m0 0 5 5v2h7l6 2-3 2-8 1 1 7h5l1 2h-5l-1 2-5 1 2-3-1-5-1-2-7 5h-2l2-4 1-3 4-4-1-2z" fill="#858585"/>
<path transform="translate(642,362)" d="m0 0h1v7h-1z" fill="#858585"/>
<path transform="translate(641,359)" d="m0 0" fill="#858585"/>
<path transform="translate(614,481)" d="m0 0" fill="#858585"/>
<path transform="translate(558,469)" d="m0 0" fill="#858585"/>
<path transform="translate(642,418)" d="m0 0" fill="#858585"/>
<path transform="translate(610,367)" d="m0 0" fill="#858585"/>
<path transform="translate(485,342)" d="m0 0" fill="#858585"/>
<path transform="translate(507,312)" d="m0 0" fill="#858585"/>
</svg>
