<?xml version="1.0" encoding="UTF-8"?>
<svg version="1.1" xmlns="http://www.w3.org/2000/svg" width="1080" height="1080">
<path d="M0 0 C12.16183903 -0.11627804 24.32354399 -0.20490963 36.48582745 -0.25906086 C42.13438864 -0.28506178 47.78256717 -0.32028522 53.4309082 -0.37719727 C58.89041168 -0.43185713 64.34954902 -0.46149188 69.80930519 -0.47438622 C71.88356088 -0.4835654 73.95779843 -0.50148905 76.03189659 -0.52865028 C92.8765404 -0.74029818 105.9932476 1.12602853 119 13 C129.50199377 24.47730331 130.76528575 36.08747823 130.34375 51.07421875 C129.87817413 59.92514851 127.16657302 65.61849805 120.68359375 71.625 C119 73 119 73 116 75 C115.505 76.485 115.505 76.485 115 78 C115.680625 78.0825 116.36125 78.165 117.0625 78.25 C125.79001353 80.47830133 130.8319871 86.25927539 135.375 93.6875 C137 97 137 97 137 101 C137.66 101 138.32 101 139 101 C143.02593107 115.59400012 141.3948913 129.78098257 134.19921875 143.1484375 C128.1668845 152.46220439 128.1668845 152.46220439 123.84375 153.53515625 C123.2353125 153.68855469 122.626875 153.84195313 122 154 C121.67 154.99 121.34 155.98 121 157 C118.671875 158.1328125 118.671875 158.1328125 115.75 159.125 C114.31914062 159.62386719 114.31914062 159.62386719 112.859375 160.1328125 C105.95379163 162.22712877 99.35857182 162.2181816 92.1875 162.25 C91.03701172 162.270625 89.88652344 162.29125 88.70117188 162.3125 C80.01788186 162.35230878 73.22849945 161.16321389 66 156 C63 152.5862069 63 152.5862069 63 150 C62.34 150 61.68 150 61 150 C59.80293183 147.3789879 58.61711354 144.75385304 57.4375 142.125 C57.09525391 141.37863281 56.75300781 140.63226562 56.40039062 139.86328125 C55.54026143 137.93450668 54.76383202 135.9688967 54 134 C54.33 133.34 54.66 132.68 55 132 C55.99 132 56.98 132 58 132 C58 132.66 58 133.32 58 134 C69.24306725 138.16043017 85.58706251 139.53032633 97 135 C101.85384451 132.18402914 104.91115853 128.64651606 106.56640625 123.26953125 C107.93335284 116.11461263 107.95873548 108.33951346 104 102 C99.43117242 96.94559654 95.85813752 95.14885395 89.05761719 94.79467773 C87.47081684 94.75306084 85.8838837 94.71631548 84.296875 94.68359375 C83.04019012 94.6524221 83.04019012 94.6524221 81.75811768 94.62062073 C79.08882644 94.5553745 76.41943902 94.49635642 73.75 94.4375 C71.93749016 94.39429106 70.12498995 94.35067601 68.3125 94.30664062 C63.87509791 94.19971871 59.43759932 94.09838134 55 94 C53.92082774 90.76248322 53.88574399 88.42248229 53.90234375 85.01953125 C53.90484131 83.97128174 53.90733887 82.92303223 53.90991211 81.84301758 C53.91901611 80.51294678 53.92812012 79.18287598 53.9375 77.8125 C53.9684375 71.4703125 53.9684375 71.4703125 54 65 C65.88 64.67 77.76 64.34 90 64 C90.66 62.68 91.32 61.36 92 60 C93.5 57.75 93.5 57.75 95 56 C95.66 56 96.32 56 97 56 C97 50.39 97 44.78 97 39 C96.34 39 95.68 39 95 39 C93.67536185 37.3149161 92.56632247 35.53300878 91.4140625 33.7265625 C89.15085811 30.96320244 86.92713404 30.09903423 83.39300537 29.7215271 C82.40705383 29.70820343 81.42110229 29.69487976 80.40527344 29.68115234 C79.28441345 29.66128265 78.16355347 29.64141296 77.00872803 29.62094116 C75.20229828 29.60361435 75.20229828 29.60361435 73.359375 29.5859375 C71.50339691 29.55688828 71.50339691 29.55688828 69.60992432 29.5272522 C66.32861429 29.47762011 63.04733888 29.43633933 59.76586914 29.39910889 C56.41411724 29.35902344 53.06255655 29.30778775 49.7109375 29.2578125 C43.14073391 29.16175507 36.57045645 29.07670723 30 29 C30.08478919 40.8667379 30.17981818 52.73334698 30.28752708 64.59990025 C30.33723999 70.11141561 30.38357 75.62291409 30.421875 81.13452148 C30.45904647 86.46441291 30.50548788 91.79415378 30.55806351 97.12391472 C30.57643974 99.14619209 30.59160785 101.16850152 30.60334396 103.19082832 C30.6720523 114.63259917 31.10295488 125.70196701 33 137 C33.18638031 138.12430923 33.37276062 139.24861847 33.56478882 140.40699768 C33.70840851 141.26268845 33.8520282 142.11837921 34 143 C34.66 143 35.32 143 36 143 C36.495 144.134375 36.99 145.26875 37.5 146.4375 C39.75525854 151.02155811 42.88232321 154.44243344 46.390625 158.1171875 C48 160 48 160 48 162 C28.88204695 161.52560911 28.88204695 161.52560911 22 157 C21.67 156.01 21.34 155.02 21 154 C20.12021484 153.80664062 20.12021484 153.80664062 19.22265625 153.609375 C15.97320042 152.71848729 14.63187908 150.75998351 12.4375 148.25 C11.67308594 147.38890625 10.90867187 146.5278125 10.12109375 145.640625 C7.19183449 141.99388604 4.97807337 138.10224767 2.875 133.9375 C2.37613281 132.96103516 2.37613281 132.96103516 1.8671875 131.96484375 C0.20423291 128.19697818 -0.12433998 124.83734426 -0.12025452 120.73553467 C-0.12162918 119.6698526 -0.12300385 118.60417053 -0.12442017 117.50619507 C-0.12082489 116.34238312 -0.11722961 115.17857117 -0.11352539 113.97949219 C-0.11367142 112.74995819 -0.11381744 111.52042419 -0.1139679 110.25363159 C-0.11339078 106.88618318 -0.1083769 103.51879615 -0.10139394 100.1513586 C-0.09514092 96.6306317 -0.09455506 93.10990397 -0.09336853 89.58917236 C-0.09026097 82.92401265 -0.08205531 76.25886935 -0.07201904 69.59371686 C-0.06084007 62.00489531 -0.05534295 54.41607297 -0.05032361 46.82724524 C-0.03987223 31.21815399 -0.0222839 15.60907911 0 0 Z " fill="#858585" transform="translate(45,459)"/>
<path d="M0 0 C1.03745361 -0.01788574 2.07490723 -0.03577148 3.14379883 -0.05419922 C16.83434337 -0.03902003 29.44946795 3.64717498 39.90234375 12.6875 C41.88341988 14.87351504 43.23692282 16.55984965 44.375 19.3125 C43.3828125 22.51171875 43.3828125 22.51171875 41.5 26 C41.17427002 26.60924316 40.84854004 27.21848633 40.51293945 27.84619141 C37.57100765 33.22996192 34.41909629 38.68152958 30.375 43.3125 C29.715 43.3125 29.055 43.3125 28.375 43.3125 C27.98828125 44.18648438 27.98828125 44.18648438 27.59375 45.078125 C26.27665983 47.4927903 24.82411616 49.12990177 22.875 51.0625 C22.2665625 51.67609375 21.658125 52.2896875 21.03125 52.921875 C19.375 54.3125 19.375 54.3125 17.375 54.3125 C17.375 54.9725 17.375 55.6325 17.375 56.3125 C13.745 58.2925 10.115 60.2725 6.375 62.3125 C7.55835938 62.68761719 8.74171875 63.06273437 9.9609375 63.44921875 C30.03795664 69.90709991 47.17216556 79.28779243 60.375 96.3125 C60.375 96.9725 60.375 97.6325 60.375 98.3125 C61.035 98.3125 61.695 98.3125 62.375 98.3125 C64.70376607 101.15876964 65.3664063 102.86562753 65.4375 106.5625 C62.7570438 116.02293364 55.8414182 122.33936544 48.375 128.3125 C47.55 129.17875 46.725 130.045 45.875 130.9375 C43.40146329 133.28735987 41.59408168 134.30078861 38.375 135.3125 C38.375 135.9725 38.375 136.6325 38.375 137.3125 C20.97064592 150.06936988 -1.09430743 159.8049093 -22.625 162.3125 C-21.635 165.2825 -20.645 168.2525 -19.625 171.3125 C-22.125 169.9375 -22.125 169.9375 -24.625 168.3125 C-24.625 167.6525 -24.625 166.9925 -24.625 166.3125 C-25.615 165.9825 -26.605 165.6525 -27.625 165.3125 C-27.625 164.6525 -27.625 163.9925 -27.625 163.3125 C-28.5221875 162.94125 -28.5221875 162.94125 -29.4375 162.5625 C-31.94126919 161.13177475 -33.10572388 159.7433418 -34.625 157.3125 C-34.625 156.6525 -34.625 155.9925 -34.625 155.3125 C-35.285 155.3125 -35.945 155.3125 -36.625 155.3125 C-40.76048861 148.18567463 -44.04707243 141.13882369 -46.625 133.3125 C-46.955 132.3225 -47.285 131.3325 -47.625 130.3125 C-47.70643855 128.68530518 -47.7325302 127.05498281 -47.72265625 125.42578125 C-47.71943359 124.48798828 -47.71621094 123.55019531 -47.71289062 122.58398438 C-47.70032227 121.11928711 -47.70032227 121.11928711 -47.6875 119.625 C-47.68298828 118.63693359 -47.67847656 117.64886719 -47.67382812 116.63085938 C-47.66204303 114.19134526 -47.64559011 111.75195311 -47.625 109.3125 C-46.635 109.6425 -45.645 109.9725 -44.625 110.3125 C-43.9375 112.375 -43.9375 112.375 -43.625 114.3125 C-42.965 114.3125 -42.305 114.3125 -41.625 114.3125 C-40.3359375 115.9921875 -40.3359375 115.9921875 -39 118.1875 C-38.55398438 118.90679687 -38.10796875 119.62609375 -37.6484375 120.3671875 C-36.625 122.3125 -36.625 122.3125 -36.625 124.3125 C-35.965 124.3125 -35.305 124.3125 -34.625 124.3125 C-33.514318 125.51989046 -32.46034451 126.77984831 -31.4375 128.0625 C-27.65162768 132.45598146 -24.47777933 135.62501521 -18.5234375 136.6875 C-5.69549936 137.37394485 7.89381356 132.42314976 18.375 125.3125 C20.04653993 123.65072089 21.71392613 121.98474076 23.375 120.3125 C24.365 119.9825 25.355 119.6525 26.375 119.3125 C26.87 117.8275 26.87 117.8275 27.375 116.3125 C28.035 116.3125 28.695 116.3125 29.375 116.3125 C29.643125 115.755625 29.91125 115.19875 30.1875 114.625 C31.48399496 112.10024666 32.79976323 109.67535516 34.375 107.3125 C35.035 107.3125 35.695 107.3125 36.375 107.3125 C37.57870117 104.16310367 37.57870117 104.16310367 37.375 100.3125 C35.16500412 97.4135054 32.30631267 95.44477884 29.375 93.3125 C28.50617188 92.63832031 27.63734375 91.96414063 26.7421875 91.26953125 C9.67884013 78.31402677 -8.40091408 74.48525256 -29.5 77.3125 C-30.50377686 77.45268555 -30.50377686 77.45268555 -31.52783203 77.59570312 C-38.24578967 78.49553074 -44.84828508 78.50309511 -51.625 78.3125 C-47.1984145 74.42109594 -42.31609383 71.83184142 -37.125 69.125 C-35.86236328 68.44920898 -35.86236328 68.44920898 -34.57421875 67.75976562 C-33.75566406 67.32986328 -32.93710937 66.89996094 -32.09375 66.45703125 C-31.35576172 66.06878174 -30.61777344 65.68053223 -29.85742188 65.28051758 C-27.45868764 64.24038402 -25.19860584 63.73662436 -22.625 63.3125 C-22.625 62.6525 -22.625 61.9925 -22.625 61.3125 C-21.9959375 61.03277344 -21.366875 60.75304687 -20.71875 60.46484375 C-15.10191804 57.83406854 -10.69454709 54.96950325 -6.21875 50.66796875 C-4.625 49.3125 -4.625 49.3125 -2.625 49.3125 C-2.3465625 48.72082031 -2.068125 48.12914062 -1.78125 47.51953125 C-0.625 45.3125 -0.625 45.3125 0.59375 43.69921875 C5.39981841 37.32531705 5.70397761 30.00421933 6.375 22.3125 C-11.21969279 19.47169023 -27.80922932 22.21463262 -44.546875 27.98828125 C-47.35295858 28.9497255 -50.10848073 29.64634096 -53.015625 30.23046875 C-57.33026514 31.23122489 -61.31480268 32.23417387 -64.625 35.3125 C-68.15738157 41.67891416 -68.75638075 49.20043717 -69.625 56.3125 C-69.85839048 57.85231175 -70.09630605 59.39144801 -70.33984375 60.9296875 C-73.41493714 81.59298836 -70.47944723 102.67092945 -63.625 122.3125 C-63.41004883 122.96057617 -63.19509766 123.60865234 -62.97363281 124.27636719 C-56.01677477 145.20933466 -44.38223324 164.79611976 -31.0234375 182.2734375 C-29.625 184.3125 -29.625 184.3125 -29.625 186.3125 C-28.965 186.3125 -28.305 186.3125 -27.625 186.3125 C-26.15234375 187.9921875 -26.15234375 187.9921875 -24.5625 190.1875 C-24.03527344 190.90679687 -23.50804687 191.62609375 -22.96484375 192.3671875 C-21.625 194.3125 -21.625 194.3125 -20.625 196.3125 C-24.26470867 196.74070102 -25.67069463 196.28663512 -28.9375 194.4375 C-29.824375 193.73625 -30.71125 193.035 -31.625 192.3125 C-31.625 191.6525 -31.625 190.9925 -31.625 190.3125 C-32.20765625 190.0546875 -32.7903125 189.796875 -33.390625 189.53125 C-35.8052903 188.21415983 -37.44240177 186.76161616 -39.375 184.8125 C-39.98859375 184.2040625 -40.6021875 183.595625 -41.234375 182.96875 C-42.625 181.3125 -42.625 181.3125 -42.625 179.3125 C-43.285 179.3125 -43.945 179.3125 -44.625 179.3125 C-72.58143979 150.84427184 -91.88761374 107.34406882 -91.80834961 67.40893555 C-91.63343305 55.67024375 -89.03138986 44.51175369 -85.625 33.3125 C-85.12033203 31.60900391 -85.12033203 31.60900391 -84.60546875 29.87109375 C-84.05826172 28.29521484 -84.05826172 28.29521484 -83.5 26.6875 C-83.18804687 25.76710938 -82.87609375 24.84671875 -82.5546875 23.8984375 C-77.72110098 17.42104017 -67.76277277 15.02837407 -60.375 12.375 C-58.96250977 11.86622314 -58.96250977 11.86622314 -57.52148438 11.34716797 C-38.53620774 4.64814949 -20.18750102 0.23362083 0 0 Z " fill="#858585" transform="translate(578.625,298.6875)"/>
<path d="M0 0 C1.53333984 -0.00193359 1.53333984 -0.00193359 3.09765625 -0.00390625 C4.16886719 -0.00003906 5.24007812 0.00382812 6.34375 0.0078125 C7.95056641 0.00201172 7.95056641 0.00201172 9.58984375 -0.00390625 C10.61207031 -0.00261719 11.63429688 -0.00132812 12.6875 0 C13.62787109 0.00112793 14.56824219 0.00225586 15.53710938 0.00341797 C17.84375 0.1328125 17.84375 0.1328125 19.84375 1.1328125 C19.84375 48.6528125 19.84375 96.1728125 19.84375 145.1328125 C11.59375 145.1328125 3.34375 145.1328125 -5.15625 145.1328125 C-5.15625 143.8128125 -5.15625 142.4928125 -5.15625 141.1328125 C-5.81625 141.1328125 -6.47625 141.1328125 -7.15625 141.1328125 C-7.48625 140.1428125 -7.81625 139.1528125 -8.15625 138.1328125 C-9.084375 138.8753125 -9.084375 138.8753125 -10.03125 139.6328125 C-12.15625 141.1328125 -12.15625 141.1328125 -14.15625 141.1328125 C-14.15625 141.7928125 -14.15625 142.4528125 -14.15625 143.1328125 C-27.98797012 150.85458579 -44.85049897 149.97807285 -59.859375 146.5078125 C-67.71421189 144.09093961 -74.06401753 139.53274582 -80.15625 134.1328125 C-80.81882812 133.56433594 -81.48140625 132.99585938 -82.1640625 132.41015625 C-84.67362512 129.54138173 -85.57873034 126.86537149 -86.78125 123.2578125 C-87.18601562 122.06414062 -87.59078125 120.87046875 -88.0078125 119.640625 C-88.38679687 118.48304688 -88.76578125 117.32546875 -89.15625 116.1328125 C-89.51976562 115.12605469 -89.88328125 114.11929688 -90.2578125 113.08203125 C-93.63628344 101.99183317 -91.8005462 90.35751218 -90.15625 79.1328125 C-89.49625 79.1328125 -88.83625 79.1328125 -88.15625 79.1328125 C-88.053125 78.2665625 -87.95 77.4003125 -87.84375 76.5078125 C-87.11188713 72.91503115 -86.05064707 70.2658538 -84.15625 67.1328125 C-82.67125 66.6378125 -82.67125 66.6378125 -81.15625 66.1328125 C-81.053125 65.5346875 -80.95 64.9365625 -80.84375 64.3203125 C-79.75503271 60.85621204 -77.19914859 59.87161169 -74.15625 58.1328125 C-73.49625 58.1328125 -72.83625 58.1328125 -72.15625 58.1328125 C-71.82625 57.1428125 -71.49625 56.1528125 -71.15625 55.1328125 C-66.55432888 52.10523282 -61.79123606 51.38434882 -56.44921875 50.5625 C-54.19951308 50.36433185 -54.19951308 50.36433185 -53.15625 49.1328125 C-49.49764953 48.84966565 -45.82447928 48.90086037 -42.15625 48.8828125 C-41.13917969 48.8621875 -40.12210938 48.8415625 -39.07421875 48.8203125 C-30.85456282 48.77810631 -24.15385555 50.37601307 -16.84375 54.1328125 C-16.22886719 54.4421875 -15.61398437 54.7515625 -14.98046875 55.0703125 C-12.93508535 56.26162788 -11.04987308 57.71259519 -9.15625 59.1328125 C-8.49625 39.9928125 -7.83625 20.8528125 -7.15625 1.1328125 C-4.62178127 -0.13442187 -2.83398046 0.00339922 0 0 Z M-58.15625 78.1328125 C-59.38310631 80.22442187 -59.38310631 80.22442187 -60.15625 82.1328125 C-60.81625 82.1328125 -61.47625 82.1328125 -62.15625 82.1328125 C-67.09935054 91.23731396 -68.3610082 99.80991989 -65.65625 109.8828125 C-63.62916219 115.70544749 -61.00252413 120.2453711 -56.15625 124.1328125 C-52.93344619 125.68713272 -52.93344619 125.68713272 -50.15625 126.1328125 C-50.15625 126.7928125 -50.15625 127.4528125 -50.15625 128.1328125 C-40.12799946 131.18264127 -32.06516838 132.04422765 -22.15625 128.1328125 C-22.15625 127.4728125 -22.15625 126.8128125 -22.15625 126.1328125 C-21.62 126.0503125 -21.08375 125.9678125 -20.53125 125.8828125 C-16.17468217 124.50705424 -13.13104335 122.68535543 -10.66015625 118.75 C-7.96651841 113.69307081 -7.96651841 113.69307081 -7.15625 108.1328125 C-6.49625 108.1328125 -5.83625 108.1328125 -5.15625 108.1328125 C-4.11809908 99.60816247 -4.11809908 99.60816247 -5.15625 91.1328125 C-5.81625 91.1328125 -6.47625 91.1328125 -7.15625 91.1328125 C-7.218125 90.2871875 -7.28 89.4415625 -7.34375 88.5703125 C-8.83932788 82.24286763 -12.23452829 78.5344773 -17.53125 74.8828125 C-19.06101818 73.94642412 -20.60197948 73.02794212 -22.15625 72.1328125 C-23.208125 71.5140625 -24.26 70.8953125 -25.34375 70.2578125 C-37.87423908 66.56029113 -48.76652812 69.30431538 -58.15625 78.1328125 Z " fill="#858585" transform="translate(652.15625,464.8671875)"/>
<path d="M0 0 C-0.68848967 8.54874679 -2.61083304 16.78133652 -4.5 25.125 C-4.98430444 27.274615 -5.46714856 29.42452876 -5.94689941 31.57516479 C-6.38129936 33.52104682 -6.82039009 35.46587994 -7.25976562 37.41064453 C-7.98774368 40.94056978 -8.52956663 44.4287223 -9 48 C-5.99314691 47.50594239 -5.99314691 47.50594239 -3 46 C-1.76035279 42.97093919 -1.76035279 42.97093919 -1.375 39.375 C0.46119592 29.10279537 3.32849634 23.11907276 12 17 C16.95423608 14.47017732 21.69388043 14.63816323 27 16 C29.5 17.5625 29.5 17.5625 31 20 C31.59985024 22.7044972 31.81454444 25.21816666 32 28 C38.13610726 26.99818657 40.55906131 24.76341444 44.32421875 19.875 C46.8567933 17.04135016 48.94698756 16.08697172 52.74902344 15.77294922 C53.77543945 15.78342285 54.80185547 15.79389648 55.859375 15.8046875 C56.97441406 15.81113281 58.08945312 15.81757812 59.23828125 15.82421875 C60.39714844 15.84097656 61.55601562 15.85773437 62.75 15.875 C64.51150391 15.88853516 64.51150391 15.88853516 66.30859375 15.90234375 C69.20593536 15.92589937 72.10286441 15.95879348 75 16 C74.3564543 23.11598804 73.02640579 29.9140794 71.4375 36.875 C70.97503298 38.91342215 70.51526903 40.95246 70.05859375 42.9921875 C69.85548584 43.88276855 69.65237793 44.77334961 69.44311523 45.69091797 C68.90576887 48.09917109 68.90576887 48.09917109 69 51 C76.30313987 44.88115308 77.36193896 36.05411128 79.125 27.0625 C79.45847278 25.38622654 79.79429497 23.71041822 80.1328125 22.03515625 C80.34768311 20.94279663 80.34768311 20.94279663 80.56689453 19.82836914 C81 18 81 18 82 16 C86.29 16 90.58 16 95 16 C94.47599609 18.58521484 94.47599609 18.58521484 93.94140625 21.22265625 C93.48166785 23.5025834 93.02203815 25.78253248 92.5625 28.0625 C92.21735352 29.7630957 92.21735352 29.7630957 91.86523438 31.49804688 C90.76116107 36.98641129 89.70144749 42.44485836 89 48 C91.48248124 47.66334085 91.48248124 47.66334085 94 46 C96.94901767 39.80147233 98.15467366 32.59209652 99.6875 25.9375 C99.91244141 24.97650391 100.13738281 24.01550781 100.36914062 23.02539062 C100.91652014 20.68446971 101.45879793 18.3423568 102 16 C106.29 16 110.58 16 115 16 C114.47599609 18.58521484 114.47599609 18.58521484 113.94140625 21.22265625 C113.48166785 23.5025834 113.02203815 25.78253248 112.5625 28.0625 C112.21735352 29.7630957 112.21735352 29.7630957 111.86523438 31.49804688 C110.76116107 36.98641129 109.70144749 42.44485836 109 48 C112.00685309 47.50594239 112.00685309 47.50594239 115 46 C116.23964721 42.97093919 116.23964721 42.97093919 116.625 39.375 C118.37910871 29.41125458 121.190145 23.647884 129.1875 17.25 C133.35625822 15.39721857 137.44676053 14.85046833 142 15 C144.55658406 16.14785407 146.05883196 17.05883196 148 19 C148.59497174 23.63297667 148.44913808 27.11835858 146.3125 31.3125 C143.10688443 35.03794513 139.65726354 38.25352617 135 40 C132.25 40.125 132.25 40.125 130 40 C130.33 42.64 130.66 45.28 131 48 C136.4883621 48.27906926 139.3888663 48.25491791 144 45 C144.66 45 145.32 45 146 45 C146.226875 44.34 146.45375 43.68 146.6875 43 C148 40 148 40 150.1875 36.75 C152.08601017 33.85463198 153.46107819 30.95461113 154.70703125 27.73828125 C155.00391846 26.97225586 155.30080566 26.20623047 155.60668945 25.41699219 C156.19724164 23.86047803 156.77037283 22.29723046 157.32495117 20.72753906 C159.39246527 15.27488807 159.39246527 15.27488807 162.21875 13.99609375 C163.1365625 13.99738281 164.054375 13.99867188 165 14 C166.03930664 13.98271851 166.03930664 13.98271851 167.09960938 13.96508789 C169.06628785 13.9405695 171.03345115 13.96666866 173 14 C176.19314595 44.21599279 176.19314595 44.21599279 173.5 50.5 C169.0672036 54.9327964 164.63229858 57.19524105 158.3125 57.4375 C152.79539655 57.1716155 149.76265171 54.83790475 146 51 C145.46890625 51.34933594 144.9378125 51.69867187 144.390625 52.05859375 C143.68421875 52.51363281 142.9778125 52.96867188 142.25 53.4375 C141.55390625 53.88996094 140.8578125 54.34242188 140.140625 54.80859375 C135.41341516 57.43961383 130.30011902 57.5499229 125 57 C122.125 55.625 122.125 55.625 120 54 C119.01 53.34 118.02 52.68 117 52 C115.8553125 52.9590625 115.8553125 52.9590625 114.6875 53.9375 C110.50590887 57.14662807 107.18789933 57.52758298 102 57 C99.6675777 55.54350922 97.98748152 53.93900636 96 52 C95.21625 52.639375 94.4325 53.27875 93.625 53.9375 C89.531976 57.15344743 87.22213247 57.35404288 82 57 C79.0625 55.625 79.0625 55.625 77 54 C77 53.34 77 52.68 77 52 C70.2921026 54.97972807 70.2921026 54.97972807 65.7734375 60.44921875 C65.09209301 62.95372128 64.53905023 65.46179497 64 68 C62.05956653 72.1454715 60.28359868 74.26833245 56 76 C51.16464689 76.6532108 47.31016706 76.62888019 42.875 74.5 C40.72749111 71.63665481 40.28922648 69.5455519 40.49609375 65.96875 C41.33367486 62.69634008 43.44381699 61.0574156 46 59 C46.33 58.67 46.66 58.34 47 58 C46.07767578 57.76216797 46.07767578 57.76216797 45.13671875 57.51953125 C38.57054417 55.62403269 38.57054417 55.62403269 36 52.8125 C33.35206084 45.3651711 34.1368054 39.5143716 36 32 C33.97862387 32.70515316 33.97862387 32.70515316 32 34 C31.26622832 35.90931134 31.26622832 35.90931134 31.0625 38.125 C29.9062493 44.42352358 27.12462758 48.9816038 22.5 53.375 C17.59671026 56.56213833 13.89274143 57.51690714 8 57 C4.70021641 55.60393771 1.979397 53.98626466 -1 52 C-1.763125 52.639375 -2.52625 53.27875 -3.3125 53.9375 C-7.52246501 57.16840338 -10.79017806 57.35929806 -16 57 C-19.88472728 55.27345454 -21.27024931 53.78823229 -23 50 C-23.60328125 50.42152344 -24.2065625 50.84304688 -24.828125 51.27734375 C-25.62734375 51.82519531 -26.4265625 52.37304688 -27.25 52.9375 C-28.03890625 53.48277344 -28.8278125 54.02804687 -29.640625 54.58984375 C-34.43246153 57.45383876 -39.53428464 57.5475493 -45 57 C-48.69382569 55.39398883 -51.03871287 53.53031683 -53 50 C-55.16933911 41.82326029 -53.16971206 33.02611739 -49.1328125 25.71484375 C-45.85548947 20.75365476 -41.52725414 16.75792238 -35.63671875 15.4921875 C-31.47557225 14.91270932 -28.8270128 14.62868813 -24.9375 16.375 C-22.02321333 18.81924043 -22.02321333 18.81924043 -21.76171875 20.85546875 C-21.5830697 26.46881 -22.20224084 29.586388 -26 34 C-29.63757028 37.27381325 -32.76589642 39.89844984 -37.75 40.125 C-38.4925 40.08375 -39.235 40.0425 -40 40 C-39.67 42.64 -39.34 45.28 -39 48 C-32.5293301 48.4540821 -29.37188318 47.65288056 -24 44 C-21.11307488 41.11307488 -20.88276423 37.69237082 -20.08984375 33.81640625 C-19.91747696 33.0050975 -19.74511017 32.19378876 -19.56752014 31.3578949 C-19.01711113 28.76086252 -18.4769559 26.16182754 -17.9375 23.5625 C-17.39249864 20.96719823 -16.84540173 18.37235305 -16.29676819 15.77781677 C-15.95586233 14.16235704 -15.61743109 12.54637271 -15.28172302 10.92982483 C-14.64538883 7.88934828 -13.98331395 4.94994185 -13 2 C-11.39658445 1.66307215 -9.79223445 1.33058907 -8.1875 1 C-7.29417969 0.814375 -6.40085937 0.62875 -5.48046875 0.4375 C-3 0 -3 0 0 0 Z M-33 21 C-36.68506131 24.91351525 -38.60026466 29.6701955 -39 35 C-36.0389327 34.67099252 -34.71673473 33.78261037 -32.3125 31.9375 C-29.29701302 28.10701654 -29.24417656 25.80213894 -29 21 C-30.32 21 -31.64 21 -33 21 Z M20 21 C14.24246204 27.33515504 10.87097787 34.60265289 11.046875 43.32421875 C11.29847076 45.40367982 11.29847076 45.40367982 12 48 C13.72476911 48.95502158 13.72476911 48.95502158 16 49 C20.92021524 45.39984251 22.97292135 40.8676623 24 35 C23.92364496 32.61390504 23.66234587 30.38850865 23.2265625 28.04296875 C22.97523909 25.77672489 23.32905077 24.16356818 24 22 C22.68 21.67 21.36 21.34 20 21 Z M137 21 C133.31493869 24.91351525 131.39973534 29.6701955 131 35 C133.9610673 34.67099252 135.28326527 33.78261037 137.6875 31.9375 C140.70298698 28.10701654 140.75582344 25.80213894 141 21 C139.68 21 138.36 21 137 21 Z M53.4375 24 C48.87083696 29.62050836 46.71258936 36.71893053 47 44 C47.91450435 46.21651436 47.91450435 46.21651436 49 48 C52.73857075 47.49478774 54.59527709 46.92663623 57 44 C57.77873581 42.06050463 57.77873581 42.06050463 58.203125 39.91015625 C58.3784375 39.12576172 58.55375 38.34136719 58.734375 37.53320312 C58.90453125 36.71787109 59.0746875 35.90253906 59.25 35.0625 C59.435625 34.25103516 59.62125 33.43957031 59.8125 32.60351562 C60.66631785 28.66107639 61.22451833 25.92231975 60 22 C55.98377704 21.58981943 55.98377704 21.58981943 53.4375 24 Z M160 28 C157.18150494 33.54891215 155.4673486 37.741346 156 44 C154.35 44.66 152.7 45.32 151 46 C151.33 46.99 151.66 47.98 152 49 C154.81736172 49.78260048 156.45969238 50.19511109 159.25 49.1875 C161.15074924 48.10600632 161.15074924 48.10600632 162 46 C162.30708218 39.96673831 162.31519863 33.91839382 161 28 C160.67 28 160.34 28 160 28 Z M52 61 C48.24848856 62.78907722 48.24848856 62.78907722 46.1875 66.1875 C46.125625 66.785625 46.06375 67.38375 46 68 C47.32 68.33 48.64 68.66 50 69 C51.06775224 67.03533587 52.06553465 65.03144641 53 63 C52.67 62.34 52.34 61.68 52 61 Z " fill="#858585" transform="translate(859,614)"/>
<path d="M0 0 C3.42254912 3.75571761 5.765625 7.81182664 5.765625 12.9375 C6.425625 12.9375 7.085625 12.9375 7.765625 12.9375 C11.57133593 24.94361185 10.765625 34.71006764 10.765625 47.9375 C-14.644375 47.9375 -40.054375 47.9375 -66.234375 47.9375 C-65.574375 50.5775 -64.914375 53.2175 -64.234375 55.9375 C-63.904375 57.2575 -63.574375 58.5775 -63.234375 59.9375 C-61.11652387 61.05535113 -61.11652387 61.05535113 -58.234375 61.9375 C-55.98597575 62.95172358 -53.75086837 63.99230503 -51.515625 65.03515625 C-47.04986028 66.80158031 -42.83026393 67.05866201 -38.05859375 67.03515625 C-36.90166016 67.03193359 -35.74472656 67.02871094 -34.55273438 67.02539062 C-33.35455078 67.01701172 -32.15636719 67.00863281 -30.921875 67 C-29.70435547 66.99548828 -28.48683594 66.99097656 -27.23242188 66.98632812 C-24.23302274 66.97456578 -21.23372411 66.95812826 -18.234375 66.9375 C-18.234375 66.2775 -18.234375 65.6175 -18.234375 64.9375 C-15.4862622 64.09746552 -12.73617919 63.26527849 -9.984375 62.4375 C-9.20707031 62.19902344 -8.42976562 61.96054687 -7.62890625 61.71484375 C-6.87480469 61.48925781 -6.12070312 61.26367188 -5.34375 61.03125 C-4.65249023 60.82177734 -3.96123047 60.61230469 -3.24902344 60.39648438 C-1.234375 59.9375 -1.234375 59.9375 2.765625 59.9375 C3.260625 70.3325 3.260625 70.3325 3.765625 80.9375 C-9.28611045 86.53110091 -21.88818816 87.23637585 -35.921875 87.3125 C-37.21544922 87.32627686 -38.50902344 87.34005371 -39.84179688 87.35424805 C-54.6332787 87.28374975 -67.97782539 85.07364071 -79.234375 74.9375 C-84.36566519 68.86776916 -88.91715032 61.01309482 -89.421875 52.9375 C-89.36 52.2775 -89.298125 51.6175 -89.234375 50.9375 C-89.894375 50.9375 -90.554375 50.9375 -91.234375 50.9375 C-92.548436 40.66760786 -92.53672052 30.84453656 -89.234375 20.9375 C-88.99074219 19.94878906 -88.74710938 18.96007812 -88.49609375 17.94140625 C-86.42694843 10.0567776 -83.65769157 4.16466823 -77.234375 -1.0625 C-74.48046875 -2.30078125 -74.48046875 -2.30078125 -72.234375 -3.0625 C-72.234375 -3.7225 -72.234375 -4.3825 -72.234375 -5.0625 C-49.17356908 -16.53189554 -20.17586896 -18.42835275 0 0 Z M-53.234375 11.9375 C-54.306875 12.370625 -55.379375 12.80375 -56.484375 13.25 C-60.00234029 15.40875143 -61.95644977 17.48807036 -64.234375 20.9375 C-64.564375 23.5775 -64.894375 26.2175 -65.234375 28.9375 C-48.074375 28.9375 -30.914375 28.9375 -13.234375 28.9375 C-14.48548837 22.68193316 -16.004666 17.85608682 -20.921875 13.625 C-31.79118518 8.08780425 -41.85795195 7.1286793 -53.234375 11.9375 Z " fill="#858585" transform="translate(826.234375,526.0625)"/>
<path d="M0 0 C0 0.66 0 1.32 0 2 C1.0828125 2.3403125 1.0828125 2.3403125 2.1875 2.6875 C5.58568303 4.27331875 7.45230999 6.26123324 10 9 C11.3303125 10.175625 11.3303125 10.175625 12.6875 11.375 C15.53433283 14.60653997 16.10283327 16.8404088 17 21 C17.66 21 18.32 21 19 21 C21.51031815 28.05538545 22.48958795 34.33925826 22.375 41.8125 C22.36484863 42.77446289 22.35469727 43.73642578 22.34423828 44.72753906 C22.02497091 59.4336378 18.25594577 71.2181083 8 82 C3.7 85 3.7 85 1 85 C1 85.66 1 86.32 1 87 C-7.01323015 90.07397656 -14.5652072 91.68640038 -23.04296875 92.60546875 C-25.88205439 92.67959393 -25.88205439 92.67959393 -27 94 C-29.51136104 94.09975032 -31.98903415 94.13882183 -34.5 94.125 C-35.20253906 94.12886719 -35.90507812 94.13273438 -36.62890625 94.13671875 C-41.87338622 94.12661378 -41.87338622 94.12661378 -43 93 C-46.02663789 92.37353879 -49.05677246 91.8107787 -52.1015625 91.28125 C-56.75188881 90.41392724 -60.70760631 88.99568434 -65 87 C-65 86.34 -65 85.68 -65 85 C-65.59167969 84.88527344 -66.18335938 84.77054688 -66.79296875 84.65234375 C-74.20170617 82.46250455 -79.4165543 74.37341414 -83 68 C-88.57174451 55.09021054 -91.2851464 41.68304257 -87 28 C-84.90454615 22.89028618 -82.46345596 17.94008549 -80 13 C-79.34 13 -78.68 13 -78 13 C-77.773125 12.443125 -77.54625 11.88625 -77.3125 11.3125 C-71.58694327 1.22461433 -60.4922888 -2.88488052 -50 -6 C-49.0925 -6.35707031 -48.185 -6.71414063 -47.25 -7.08203125 C-31.67913076 -11.48005321 -13.96608453 -7.36079571 0 0 Z M-58.734375 25.83984375 C-63.67817163 34.27786702 -64.23242375 43.68342101 -62 53.0625 C-59.11440502 61.49426149 -53.51574219 66.58787525 -45.6875 70.5625 C-37.85364404 73.85617696 -31.1799153 73.76744599 -23 72 C-23 71.34 -23 70.68 -23 70 C-21.948125 69.773125 -20.89625 69.54625 -19.8125 69.3125 C-15.80301987 68.17270827 -13.76218068 66.13544834 -11 63 C-10.33742188 62.41863281 -9.67484375 61.83726562 -8.9921875 61.23828125 C-6.53164353 58.47378773 -5.81738687 56.11036589 -4.8125 52.5625 C-4.48894531 51.45003906 -4.16539062 50.33757813 -3.83203125 49.19140625 C-1.20896184 39.1301494 -4.24557215 33.01701834 -9 24 C-9.66 24 -10.32 24 -11 24 C-11.185625 23.4225 -11.37125 22.845 -11.5625 22.25 C-13.7455721 18.83301758 -16.36787815 17.7842002 -20 16 C-20.99 16 -21.98 16 -23 16 C-23 15.34 -23 14.68 -23 14 C-36.54175352 11.10336823 -49.9755936 14.36053176 -58.734375 25.83984375 Z " fill="#858585" transform="translate(290,521)"/>
<path d="M0 0 C0 0.66 0 1.32 0 2 C0.763125 2.20625 1.52625 2.4125 2.3125 2.625 C5.85034944 4.4350625 6.56345025 6.37082169 8 10 C8 10.66 8 11.32 8 12 C8.66 12 9.32 12 10 12 C10.86144682 16.45675992 11.12159707 20.66244644 11.11352539 25.19873047 C11.11367142 25.89211014 11.11381744 26.58548981 11.1139679 27.29988098 C11.11327596 29.57234926 11.1055175 31.84473369 11.09765625 34.1171875 C11.09578951 35.70044917 11.09436682 37.28371142 11.09336853 38.86697388 C11.08956349 43.01962906 11.07975051 47.17224886 11.06866455 51.32489014 C11.05840703 55.56815106 11.05386163 59.81141773 11.04882812 64.0546875 C11.03812632 72.36980965 11.02054595 80.68489634 11 89 C1.76 89 -7.48 89 -17 89 C-16.99887207 86.96102539 -16.99774414 84.92205078 -16.99658203 82.82128906 C-16.99720964 76.08362909 -17.03066892 69.34642009 -17.0802784 62.60895157 C-17.10934853 58.52397686 -17.12736531 54.43957671 -17.12011719 50.35449219 C-17.11352853 46.41183299 -17.13598011 42.47030958 -17.17855453 38.52788544 C-17.18969441 37.02404575 -17.19037778 35.52009099 -17.18042374 34.01624298 C-17.16825989 31.908333 -17.1933021 29.80389491 -17.22705078 27.69628906 C-17.231492 26.49715881 -17.23593323 25.29802856 -17.24050903 24.06256104 C-17.74075816 20.72164639 -17.74075816 20.72164639 -20.92868042 18.64691162 C-21.94221588 18.10343079 -22.95575134 17.55994995 -24 17 C-24.63164062 16.65453125 -25.26328125 16.3090625 -25.9140625 15.953125 C-31.8696114 13.50563915 -37.6409184 13.71384133 -44 14 C-44 14.66 -44 15.32 -44 16 C-44.74765625 16.23074219 -45.4953125 16.46148438 -46.265625 16.69921875 C-53.79760074 19.17541728 -53.79760074 19.17541728 -59 25 C-59.66 25 -60.32 25 -61 25 C-61 46.12 -61 67.24 -61 89 C-69.58 89 -78.16 89 -87 89 C-89.39150712 70.58351212 -89.23715398 52.31948468 -89.1373291 33.78668213 C-89.11656909 29.51536056 -89.10767209 25.24401413 -89.09765625 20.97265625 C-89.07644892 12.6483631 -89.04138551 4.32421729 -89 -4 C-80.09 -4 -71.18 -4 -62 -4 C-62 -1.03 -62 1.94 -62 5 C-61.278125 4.236875 -60.55625 3.47375 -59.8125 2.6875 C-57.27285341 0.2607266 -55.0695117 -1.34718601 -52 -3 C-51.34 -3.391875 -50.68 -3.78375 -50 -4.1875 C-47.56451887 -5.17691421 -45.60422365 -5.14467909 -43 -5 C-43 -5.66 -43 -6.32 -43 -7 C-27.57636323 -9.419394 -13.75618346 -7.70346274 0 0 Z " fill="#858585" transform="translate(534,521)"/>
<path d="M0 0 C8.58 0 17.16 0 26 0 C26.60012306 31.33499695 27.18880547 62.65829224 27 94 C18.75 94 10.5 94 2 94 C1.505 90.04 1.505 90.04 1 86 C-0.1446875 86.99 -0.1446875 86.99 -1.3125 88 C-4 90 -4 90 -7 90 C-7.495 91.485 -7.495 91.485 -8 93 C-10.51171875 94.09765625 -10.51171875 94.09765625 -13.6875 95.0625 C-14.72261719 95.38347656 -15.75773437 95.70445312 -16.82421875 96.03515625 C-17.87222656 96.35355469 -18.92023438 96.67195312 -20 97 C-20.95648438 97.36480469 -21.91296875 97.72960937 -22.8984375 98.10546875 C-26.61840188 99.1783552 -30.10217765 99.29354198 -33.9375 99.25 C-34.61490234 99.25773438 -35.29230469 99.26546875 -35.99023438 99.2734375 C-42.5762378 99.24817958 -48.28485637 97.39549348 -54.375 95.0625 C-55.22835938 94.74410156 -56.08171875 94.42570313 -56.9609375 94.09765625 C-59 93 -59 93 -60 90 C-60.61875 89.731875 -61.2375 89.46375 -61.875 89.1875 C-64.95106604 87.46852192 -65.67396978 85.18247254 -67 82 C-67 81.34 -67 80.68 -67 80 C-67.66 80 -68.32 80 -69 80 C-70.8509571 74.45687059 -71.3337152 69.49919253 -71.4140625 63.67578125 C-71.43347397 62.78362411 -71.45288544 61.89146698 -71.47288513 60.97227478 C-71.53294 58.08577908 -71.57936962 55.19925669 -71.625 52.3125 C-71.66282876 50.32974298 -71.70116118 48.3469955 -71.73999023 46.36425781 C-72.02212923 31.24021417 -72.08403738 16.12672884 -72 1 C-63.09 1 -54.18 1 -45 1 C-44.98018066 2.97315186 -44.96036133 4.94630371 -44.93994141 6.97924805 C-44.87211614 13.50525232 -44.7953366 20.0311034 -44.71247292 26.5569334 C-44.66256927 30.51277358 -44.61623885 34.46858782 -44.578125 38.42456055 C-44.54119704 42.24371044 -44.49481699 46.06264018 -44.44193649 49.88160133 C-44.42343238 51.3371678 -44.40830975 52.79278138 -44.39665604 54.24841881 C-44.37972496 56.29043398 -44.35067472 58.33194936 -44.31884766 60.3737793 C-44.30552399 61.53515915 -44.29220032 62.696539 -44.2784729 63.89311218 C-43.99755304 67.02730048 -43.45267451 69.21773174 -42 72 C-40.36504293 73.05104383 -38.70116376 74.05988318 -37 75 C-37 75.66 -37 76.32 -37 77 C-29.41 77 -21.82 77 -14 77 C-14 76.34 -14 75.68 -14 75 C-13.32453125 74.72027344 -12.6490625 74.44054687 -11.953125 74.15234375 C-5.72412031 71.35289222 -2.72289861 69.31217404 0 63 C0.66 63 1.32 63 2 63 C1.85789093 62.27677551 1.71578186 61.55355103 1.56936646 60.80841064 C0.20173843 53.35144075 -0.26947575 46.24173594 -0.1953125 38.671875 C-0.1924826 37.55685608 -0.18965271 36.44183716 -0.18673706 35.29302979 C-0.17566202 31.77857105 -0.15058194 28.26437995 -0.125 24.75 C-0.11495379 22.34765997 -0.10583084 19.94531588 -0.09765625 17.54296875 C-0.07747737 11.69512981 -0.03830476 5.84785971 0 0 Z " fill="#858585" transform="translate(403,516)"/>
<path d="M0 0 C4.31248609 -0.02886537 8.62494762 -0.04675255 12.9375 -0.0625 C14.16919922 -0.07087891 15.40089844 -0.07925781 16.66992188 -0.08789062 C18.4246582 -0.09272461 18.4246582 -0.09272461 20.21484375 -0.09765625 C21.84087524 -0.10551147 21.84087524 -0.10551147 23.49975586 -0.11352539 C26 0 26 0 27 1 C28.54448659 1.28447149 30.09916954 1.51414477 31.65625 1.71875 C32.59597656 1.84636719 33.53570313 1.97398437 34.50390625 2.10546875 C35.49261719 2.23566406 36.48132813 2.36585938 37.5 2.5 C39.44842673 2.75657249 41.39637788 3.01679206 43.34375 3.28125 C44.21193359 3.39533203 45.08011719 3.50941406 45.97460938 3.62695312 C48 4 48 4 49 5 C49.56590332 12.87000437 48.69235856 20.32394511 47 28 C44.40848735 26.99531937 41.89656142 25.94859227 39.40625 24.7109375 C29.23412785 20.03504264 15.85425551 18.49857917 5.01953125 21.94921875 C1.76174576 23.62660116 1.76174576 23.62660116 -1 26 C-1.75 29 -1.75 29 -1 32 C1.42672567 33.78969026 1.42672567 33.78969026 4 35 C4 35.66 4 36.32 4 37 C5.13824219 37.1340625 6.27648437 37.268125 7.44921875 37.40625 C11.93016618 37.96698543 16.36745209 38.70750249 20.8125 39.5 C21.93688477 39.69529297 21.93688477 39.69529297 23.08398438 39.89453125 C26.14387414 40.43595947 29.04756636 41.01585545 32 42 C32 42.66 32 43.32 32 44 C32.825 44.0825 33.65 44.165 34.5 44.25 C42.16775368 45.89309007 47.67916807 49.38114599 52 56 C55.91937003 63.71793756 55.02921331 74.94149408 52.5625 83.0625 C49.79472436 89.54338311 44.9971792 93.1707824 38.6953125 96.0546875 C29.15445235 99.52108998 19.02448846 99.27624776 9 99.3125 C8.30979767 99.31511841 7.61959534 99.31773682 6.90847778 99.32043457 C-20.37274463 99.33153723 -20.37274463 99.33153723 -29 91 C-29.74027894 87.39282264 -29.56519701 83.91251165 -29.375 80.25 C-29.34792969 79.26644531 -29.32085938 78.28289062 -29.29296875 77.26953125 C-29.22232587 74.84412577 -29.12376119 72.42318055 -29 70 C-25.25 68.875 -25.25 68.875 -23 70 C-23 70.66 -23 71.32 -23 72 C-21.57300781 72.185625 -21.57300781 72.185625 -20.1171875 72.375 C-15.41117916 73.04830296 -10.77493187 74.01882172 -6.125 75 C-4.825625 75.26683594 -4.825625 75.26683594 -3.5 75.5390625 C-2.67757812 75.71179688 -1.85515625 75.88453125 -1.0078125 76.0625 C0.11149658 76.29646484 0.11149658 76.29646484 1.25341797 76.53515625 C3 77 3 77 4 78 C5.41327947 78.15620555 6.8335459 78.25056173 8.25390625 78.31640625 C9.10791016 78.35830078 9.96191406 78.40019531 10.84179688 78.44335938 C11.73962891 78.48267578 12.63746094 78.52199219 13.5625 78.5625 C14.46419922 78.60568359 15.36589844 78.64886719 16.29492188 78.69335938 C18.52978485 78.79978142 20.76476308 78.90179988 23 79 C23 78.34 23 77.68 23 77 C23.639375 76.7525 24.27875 76.505 24.9375 76.25 C27.10087731 75.17312232 27.10087731 75.17312232 28 73.1875 C28 69.88953905 26.10000202 68.41818415 24 66 C24 65.34 24 64.68 24 64 C22.04213128 63.53968604 20.08367448 63.08187326 18.125 62.625 C16.93261719 62.3465625 15.74023438 62.068125 14.51171875 61.78125 C11.65665408 61.14608545 8.8193026 60.6139192 5.9375 60.125 C-1.44695167 58.69887022 -8.33603606 55.41093889 -15 52 C-15 51.34 -15 50.68 -15 50 C-15.721875 49.773125 -16.44375 49.54625 -17.1875 49.3125 C-22.48219662 46.84164158 -25.84998452 42.65783954 -28.26953125 37.43359375 C-30.58310142 29.7258172 -29.68356781 21.94364345 -26.16796875 14.8046875 C-24.94702383 12.91814384 -23.64387843 11.52585639 -22 10 C-20.7315625 8.7625 -20.7315625 8.7625 -19.4375 7.5 C-14.078814 3.07674547 -6.83992454 1.46000596 0 2 C0 1.34 0 0.68 0 0 Z " fill="#858585" transform="translate(882,514)"/>
<path d="M0 0 C0.66 0.33 1.32 0.66 2 1 C3.38946013 1.19526091 4.78574943 1.34336318 6.18359375 1.46484375 C7.02438477 1.5417041 7.86517578 1.61856445 8.73144531 1.69775391 C10.07094238 1.81642822 10.07094238 1.81642822 11.4375 1.9375 C18.7183141 2.61771897 25.82986828 3.52379641 33 5 C33 12.26 33 19.52 33 27 C27.37437186 28.12512563 27.37437186 28.12512563 23.4375 26.1875 C22.69371094 25.83042969 21.94992187 25.47335937 21.18359375 25.10546875 C19.76303483 24.38629492 18.34970426 23.65259866 16.9453125 22.90234375 C9.6377412 19.51268718 -1.52544295 19.94598098 -9 22.4375 C-10.33786587 22.94657764 -11.67188957 23.46598893 -13 24 C-13.99 24.33 -14.98 24.66 -16 25 C-16 25.66 -16 26.32 -16 27 C-16.66 27 -17.32 27 -18 27 C-18 28.98 -18 30.96 -18 33 C-16.35 33.66 -14.7 34.32 -13 35 C-13 35.66 -13 36.32 -13 37 C-12.32420898 37.11593506 -11.64841797 37.23187012 -10.95214844 37.35131836 C-7.88449574 37.87848884 -4.81724615 38.40796945 -1.75 38.9375 C-0.68652344 39.11990234 0.37695312 39.30230469 1.47265625 39.49023438 C2.49746094 39.66748047 3.52226563 39.84472656 4.578125 40.02734375 C5.52075195 40.18968506 6.46337891 40.35202637 7.43457031 40.51928711 C9.65219747 40.9348284 11.81957165 41.42348757 14 42 C14 42.66 14 43.32 14 44 C14.99 44.0825 15.98 44.165 17 44.25 C23.99050003 45.2688583 29.43471942 48.65209989 34 54 C39.39359203 62.28301633 39.08862125 71.74042782 37.421875 81.32421875 C35.25564465 88.38416038 31.33930939 92.33324937 25 96 C20.87610688 98.00243367 16.75955247 98.56288677 12.25 99.0625 C7.75843824 99.20563891 7.75843824 99.20563891 4 101 C2.21928754 101.08726223 0.4351686 101.10699041 -1.34765625 101.09765625 C-2.42724609 101.09443359 -3.50683594 101.09121094 -4.61914062 101.08789062 C-5.75544922 101.07951172 -6.89175781 101.07113281 -8.0625 101.0625 C-9.20267578 101.05798828 -10.34285156 101.05347656 -11.51757812 101.04882812 C-14.34510351 101.03699747 -17.1725264 101.0205141 -20 101 C-20 100.34 -20 99.68 -20 99 C-21.00546875 99.03738281 -22.0109375 99.07476563 -23.046875 99.11328125 C-27.09598132 98.99724955 -30.36723209 98.30946865 -34.25 97.1875 C-35.45140625 96.85105469 -36.6528125 96.51460937 -37.890625 96.16796875 C-40.92468283 95.02829125 -42.09351935 94.51431857 -44 92 C-44.34057617 89.63989258 -44.34057617 89.63989258 -44.29296875 86.89453125 C-44.28330078 85.91162109 -44.27363281 84.92871094 -44.26367188 83.91601562 C-44.23853516 82.89185547 -44.21339844 81.86769531 -44.1875 80.8125 C-44.16719727 79.25885742 -44.16719727 79.25885742 -44.14648438 77.67382812 C-44.11111389 75.11536301 -44.06175544 72.5579422 -44 70 C-42.68 70 -41.36 70 -40 70 C-40 70.66 -40 71.32 -40 72 C-39.42894531 72.10957031 -38.85789062 72.21914063 -38.26953125 72.33203125 C-17.63241107 76.36758893 -17.63241107 76.36758893 -16 78 C-8.00465385 79.67344454 2.63130844 80.9465768 10 77 C12.26142258 74.25305475 12.26142258 74.25305475 11.875 71.5 C10.82488321 68.49966633 9.57747826 67.74603366 7 66 C7 65.34 7 64.68 7 64 C6.44763672 63.91548584 5.89527344 63.83097168 5.32617188 63.74389648 C-11.24837134 61.12279795 -27.87100386 57.59834629 -40 45 C-44.74115224 38.04631005 -44.53949858 31.22735332 -44 23 C-42.93434507 17.56202556 -41.39228965 13.56873534 -37 10 C-36.56171875 9.51402344 -36.1234375 9.02804687 -35.671875 8.52734375 C-29.37913693 2.77860406 -19.19583863 2.27508095 -11.08984375 1.39453125 C-0.12690513 -0.00528771 -0.12690513 -0.00528771 0 0 Z " fill="#858585" transform="translate(996,514)"/>
<path d="M0 0 C8.25 0 16.5 0 25 0 C25.02505615 2.19978516 25.0501123 4.39957031 25.07592773 6.66601562 C25.15960418 13.95429837 25.24826313 21.24251447 25.33933926 28.53070831 C25.39437786 32.94720599 25.44776607 37.36371048 25.49731445 41.78027344 C25.54524082 46.04674171 25.5975914 50.31313535 25.65294075 54.57951355 C25.67323696 56.20287707 25.69196995 57.82626096 25.70907402 59.44966125 C25.73340262 61.73279125 25.76341448 64.01578394 25.79467773 66.29882812 C25.81799416 68.24408386 25.81799416 68.24408386 25.84178162 70.2286377 C25.95422675 72.90892891 26.15106493 75.41878277 26.5057373 78.06311035 C26.95737823 81.66051004 27.12082588 85.07036229 27.11352539 88.69140625 C27.11344986 89.95210937 27.11337433 91.2128125 27.11329651 92.51171875 C27.10819191 93.86197958 27.10297595 95.21224 27.09765625 96.5625 C27.09578795 97.96354115 27.094366 99.36458296 27.09336853 100.765625 C27.08957576 104.42834318 27.07977366 108.09102083 27.06866455 111.75372314 C27.05838026 115.50117444 27.05385596 119.24863237 27.04882812 122.99609375 C27.03814804 130.33074966 27.02057801 137.66536396 27 145 C22.38 145.33 17.76 145.66 13 146 C18.94 146 24.88 146 31 146 C30 152 30 152 28.41015625 154.35546875 C25.01184458 156.67425192 22.51047189 156.42796059 18.4375 156.3125 C17.76525391 156.30283203 17.09300781 156.29316406 16.40039062 156.28320312 C13.35696236 156.21369086 10.90368981 155.9678966 8 155 C7.87995605 155.62640381 7.75991211 156.25280762 7.63623047 156.89819336 C4.52223662 173.04672682 0.95343622 189.0368125 -3 205 C-7.29 205 -11.58 205 -16 205 C-12.63312301 187.60098349 -8.8242966 170.30284617 -5 153 C-6.44096586 153.42594588 -7.87768712 153.86626633 -9.3125 154.3125 C-10.11300781 154.55613281 -10.91351562 154.79976562 -11.73828125 155.05078125 C-14.15143168 156.06355423 -15.37126886 156.97035042 -17 159 C-18.14077657 162.42232972 -18.09815117 165.08673217 -18.0625 168.6875 C-18.05347656 169.86699219 -18.04445313 171.04648437 -18.03515625 172.26171875 C-18.02355469 173.16535156 -18.01195312 174.06898438 -18 175 C-24.35470441 174.52039967 -24.35470441 174.52039967 -26.9375 172.4375 C-29.09342139 167.49156268 -28.40742445 163.26516013 -26.8125 158.3125 C-22.96657354 151.28373784 -18.3394951 148.63469055 -11 146 C-7.37 145.67 -3.74 145.34 0 145 C0 97.15 0 49.3 0 0 Z " fill="#858585" transform="translate(690,465)"/>
<path d="M0 0 C0.27972656 0.94617188 0.55945313 1.89234375 0.84765625 2.8671875 C7.68058673 25.59702102 16.80271298 46.41453655 31.19921875 65.4453125 C33 68 33 68 33 70 C33.99 70.33 34.98 70.66 36 71 C37.54296875 72.56640625 37.54296875 72.56640625 39.1875 74.5625 C45.30137941 82.22370889 45.30137941 82.22370889 53 88 C53 88.66 53 89.32 53 90 C53.515625 90.226875 54.03125 90.45375 54.5625 90.6875 C57.3752274 92.20204552 59.73669289 94.07164994 62.21875 96.07421875 C63.94986206 97.16462239 63.94986206 97.16462239 65.91796875 96.90234375 C68.73010814 95.68357414 70.56906722 93.95944936 72.8125 91.875 C73.68519531 91.06546875 74.55789063 90.2559375 75.45703125 89.421875 C81.70912199 83.62624986 81.70912199 83.62624986 87 77 C87.66 77 88.32 77 89 77 C89.36351562 76.21496094 89.36351562 76.21496094 89.734375 75.4140625 C91.38064541 72.27395412 93.31233421 69.33952826 95.25 66.375 C101.59028835 57.01337415 101.59028835 57.01337415 106.84082031 47.05371094 C108.18796826 44.66697788 109.50182791 43.62060829 111.73828125 42.0546875 C112.47626953 41.53519531 113.21425781 41.01570313 113.97460938 40.48046875 C114.74611328 39.95066406 115.51761719 39.42085938 116.3125 38.875 C117.07240234 38.33746094 117.83230469 37.79992187 118.61523438 37.24609375 C122.28649874 34.68801032 125.70175298 32.38985233 130 31 C130 30.34 130 29.68 130 29 C131.65 28.67 133.3 28.34 135 28 C129.69165363 53.35550921 122.94256816 80.67439683 103 99 C102.34 99 101.68 99 101 99 C100.505 100.485 100.505 100.485 100 102 C99.34 102 98.68 102 98 102 C97.505 103.485 97.505 103.485 97 105 C92.54285714 109 92.54285714 109 90 109 C89.505 110.485 89.505 110.485 89 112 C86.9375 112.6875 86.9375 112.6875 85 113 C85 113.66 85 114.32 85 115 C83.3203125 116.2890625 83.3203125 116.2890625 81.125 117.625 C80.40570312 118.07101562 79.68640625 118.51703125 78.9453125 118.9765625 C77 120 77 120 75 120 C75 120.66 75 121.32 75 122 C73.4274835 122.89429374 71.84146259 123.76487427 70.25 124.625 C69.36828125 125.11226562 68.4865625 125.59953125 67.578125 126.1015625 C65 127 65 127 62.671875 126.1484375 C62.12015625 125.76945313 61.5684375 125.39046875 61 125 C61 124.34 61 123.68 61 123 C59.02 122.505 59.02 122.505 57 122 C57 121.34 57 120.68 57 120 C56.33226562 119.81050781 55.66453125 119.62101563 54.9765625 119.42578125 C50.74429751 117.39851521 47.747329 114.41120296 44.375 111.1875 C43.66714355 110.51533447 42.95928711 109.84316895 42.22998047 109.15063477 C31.80688166 99.11186851 23.09041868 87.9720094 15 76 C14.33484375 75.02160156 13.6696875 74.04320312 12.984375 73.03515625 C3.59983725 58.51964155 -3.62554855 42.39663153 -9 26 C-9.57536098 24.51771408 -10.15754897 23.03803841 -10.75 21.5625 C-13.07173725 14.94554883 -13.07173725 14.94554883 -13 11 C-11.33858126 8.30303944 -9.26380322 6.19850121 -7 4 C-6.278125 3.195625 -5.55625 2.39125 -4.8125 1.5625 C-3 0 -3 0 0 0 Z " fill="#858585" transform="translate(491,408)"/>
<path d="M0 0 C0.81726563 0.18304688 1.63453125 0.36609375 2.4765625 0.5546875 C15.34857621 3.86463388 24.74625375 11.92673462 34 21 C32.87548273 23.9719385 31.77706209 26.33440687 30 29 C29.34 29 28.68 29 28 29 C27.731875 29.639375 27.46375 30.27875 27.1875 30.9375 C26 33 26 33 23 34 C22.67 34.99 22.34 35.98 22 37 C18.9375 38.6875 18.9375 38.6875 16 40 C15.67386719 39.18015625 15.34773437 38.3603125 15.01171875 37.515625 C14.57472656 36.43796875 14.13773438 35.3603125 13.6875 34.25 C13.04361328 32.64898437 13.04361328 32.64898437 12.38671875 31.015625 C10.13944766 26.12860168 8.40091108 23.77616458 3.3125 21.875 C2.50425781 21.56304687 1.69601562 21.25109375 0.86328125 20.9296875 C-19.26019765 14.39573391 -39.13106457 17.97312554 -58.34765625 25.76171875 C-61.94755582 26.98221946 -62.64269144 27.09412081 -66 26 C-66.50904657 24.12743583 -67.00682455 22.25180659 -67.5 20.375 C-67.7784375 19.33085937 -68.056875 18.28671875 -68.34375 17.2109375 C-68.99118596 14.04312582 -69.1161292 11.22258533 -69 8 C-64.1459244 5.79016792 -59.3841519 4.16901462 -54.1875 2.9375 C-53.48608887 2.76758545 -52.78467773 2.5976709 -52.06201172 2.42260742 C-34.89380417 -1.69452087 -17.44248405 -4.23986535 0 0 Z " fill="#858585" transform="translate(579,382)"/>
<path d="M0 0 C0.928125 0.433125 1.85625 0.86625 2.8125 1.3125 C5.66831413 9.87994238 3.04715665 19.81180671 -0.25390625 27.9375 C-3.57054327 34.41753008 -8.39382144 39.4818006 -15.1875 42.3125 C-19.542717 42.91241361 -23.17533062 42.77641097 -27.1875 40.9375 C-29.1875 39.3125 -29.1875 39.3125 -30.1875 37.3125 C-30.91453125 37.85390625 -30.91453125 37.85390625 -31.65625 38.40625 C-36.75047408 41.93302052 -39.98583147 43.32916697 -46.1875 42.3125 C-49.1875 39.8125 -49.1875 39.8125 -51.1875 37.3125 C-51.950625 37.951875 -52.71375 38.59125 -53.5 39.25 C-57.70996501 42.48090338 -60.97767806 42.67179806 -66.1875 42.3125 C-70.15332196 40.87038292 -71.05130104 39.56673805 -73.0625 35.8125 C-75.4778326 28.29046418 -73.92096186 20.41078392 -70.4921875 13.453125 C-67.40867066 8.39394168 -63.79179575 3.57521317 -58.1875 1.3125 C-55.43847656 1.08544922 -55.43847656 1.08544922 -52.328125 1.1171875 C-51.21308594 1.12363281 -50.09804688 1.13007812 -48.94921875 1.13671875 C-47.79035156 1.15347656 -46.63148438 1.17023437 -45.4375 1.1875 C-43.67599609 1.20103516 -43.67599609 1.20103516 -41.87890625 1.21484375 C-38.98156464 1.23839937 -36.08463559 1.27129348 -33.1875 1.3125 C-33.87552127 8.59527834 -35.23795009 15.53147704 -36.90234375 22.64648438 C-37.08152344 23.45021484 -37.26070312 24.25394531 -37.4453125 25.08203125 C-37.6117627 25.79979736 -37.77821289 26.51756348 -37.94970703 27.25708008 C-38.21319804 29.5346271 -37.87153206 31.13967429 -37.1875 33.3125 C-35.23864904 33.10759634 -35.23864904 33.10759634 -33.1875 32.3125 C-28.05429415 24.9335166 -27.24815709 13.79189229 -25.60473633 5.125 C-25.1875 3.3125 -25.1875 3.3125 -24.1875 1.3125 C-19.8975 1.3125 -15.6075 1.3125 -11.1875 1.3125 C-11.71150391 3.89771484 -11.71150391 3.89771484 -12.24609375 6.53515625 C-12.70583215 8.8150834 -13.16546185 11.09503248 -13.625 13.375 C-13.85509766 14.50873047 -14.08519531 15.64246094 -14.32226562 16.81054688 C-15.42633893 22.29891129 -16.48605251 27.75735836 -17.1875 33.3125 C-13.38412842 32.26843721 -11.06069612 31.52154078 -8.71484375 28.2734375 C-5.57891528 22.23174045 -3.73262954 15.92012714 -2.1875 9.3125 C-2.826875 9.168125 -3.46625 9.02375 -4.125 8.875 C-6.1875 8.3125 -6.1875 8.3125 -7.1875 7.3125 C-7.22830783 5.31291636 -7.23004356 3.31204746 -7.1875 1.3125 C-4.38629123 -0.62679838 -3.41465603 -0.73649444 0 0 Z M-54.75 9.3125 C-59.31666304 14.93300836 -61.47491064 22.03143053 -61.1875 29.3125 C-60.27299565 31.52901436 -60.27299565 31.52901436 -59.1875 33.3125 C-55.44892925 32.80728774 -53.59222291 32.23913623 -51.1875 29.3125 C-50.40876419 27.37300463 -50.40876419 27.37300463 -49.984375 25.22265625 C-49.8090625 24.43826172 -49.63375 23.65386719 -49.453125 22.84570312 C-49.28296875 22.03037109 -49.1128125 21.21503906 -48.9375 20.375 C-48.751875 19.56353516 -48.56625 18.75207031 -48.375 17.91601562 C-47.52118215 13.97357639 -46.96298167 11.23481975 -48.1875 7.3125 C-52.20372296 6.90231943 -52.20372296 6.90231943 -54.75 9.3125 Z " fill="#858585" transform="translate(802.1875,628.6875)"/>
<path d="M0 0 C4.29 0 8.58 0 13 0 C13.33 0.66 13.66 1.32 14 2 C14.53625 1.67 15.0725 1.34 15.625 1 C18.62934544 -0.26498755 20.76767442 -0.34386442 24 0 C25.875 1.125 25.875 1.125 27 3 C27.54955021 6.68983715 27.45269677 8.34610467 25.3125 11.4375 C23 13 23 13 20.25 12.75 C19.5075 12.5025 18.765 12.255 18 12 C17.67 10.68 17.34 9.36 17 8 C14.52372901 8.63921965 14.52372901 8.63921965 12 10 C10.36291721 13.37981944 9.50942399 16.78516975 8.74609375 20.44921875 C8.53146484 21.46177734 8.31683594 22.47433594 8.09570312 23.51757812 C7.87849609 24.56365234 7.66128906 25.60972656 7.4375 26.6875 C7.00112131 28.77524759 6.56243501 30.86251459 6.12109375 32.94921875 C5.9295874 33.87049561 5.73808105 34.79177246 5.54077148 35.7409668 C5 38 5 38 4 40 C-0.29 40 -4.58 40 -9 40 C-7.88251949 34.62409479 -6.76143153 29.24895959 -5.63696289 23.87451172 C-5.2547793 22.04529301 -4.87359014 20.21586624 -4.4934082 18.38623047 C-3.94742674 15.75954 -3.39789762 13.13361345 -2.84765625 10.5078125 C-2.6778273 9.68693146 -2.50799835 8.86605042 -2.33302307 8.02029419 C-1.11387171 2.22774341 -1.11387171 2.22774341 0 0 Z " fill="#858585" transform="translate(705,630)"/>
<path d="M0 0 C0.33 0 0.66 0 1 0 C0.9278125 0.68320312 0.855625 1.36640625 0.78125 2.0703125 C-0.75510859 18.75687385 -0.53166149 34.74408999 2.66479492 51.23168945 C2.84888916 52.18906006 3.0329834 53.14643066 3.22265625 54.1328125 C3.39547119 54.97730957 3.56828613 55.82180664 3.74633789 56.69189453 C4.17549157 60.59682129 3.4229783 62.46113723 1.00390625 65.54296875 C-0.20458984 66.85201172 -0.20458984 66.85201172 -1.4375 68.1875 C-2.64212891 69.50814453 -2.64212891 69.50814453 -3.87109375 70.85546875 C-6 73 -6 73 -8 74 C-9.3007539 70.09773829 -9.18231881 66.36984635 -9.203125 62.30078125 C-9.20882507 61.43293503 -9.21452515 60.56508881 -9.22039795 59.67094421 C-9.22985304 57.82580787 -9.23638395 55.9806546 -9.24023438 54.13549805 C-9.24980799 51.36800526 -9.28076873 48.60129858 -9.3125 45.83398438 C-9.40428513 30.51017756 -8.78693742 13.18040612 0 0 Z " fill="#858585" transform="translate(485,342)"/>
<path d="M0 0 C4.5 2.25 4.5 2.25 6 6 C6.86625 5.938125 7.7325 5.87625 8.625 5.8125 C12.44199033 6.02455502 14.71077536 7.12044307 18 9 C15.60236815 11.39763185 14.66726502 11.34280586 11.375 11.625 C10.55773437 11.69976562 9.74046875 11.77453125 8.8984375 11.8515625 C8.27195312 11.90054687 7.64546875 11.94953125 7 12 C7.495 12.8971875 7.495 12.8971875 8 13.8125 C9 16 9 16 9 19 C10.65 19 12.3 19 14 19 C14 19.66 14 20.32 14 21 C12.68 21 11.36 21 10 21 C10.2165625 21.89976562 10.433125 22.79953125 10.65625 23.7265625 C13.21372264 35.54303332 13.32505426 46.94465414 13 59 C8.99245833 57.66415278 7.62523764 55.23106172 5 52 C4.34 51.67 3.68 51.34 3 51 C3 50.34 3 49.68 3 49 C2.41968018 48.72526855 1.83936035 48.45053711 1.24145508 48.16748047 C-0.94849803 47.02682523 -2.86287421 45.76423406 -4.86328125 44.3203125 C-5.58580078 43.80339844 -6.30832031 43.28648437 -7.05273438 42.75390625 C-8.54782719 41.6761989 -10.04262361 40.59808024 -11.53710938 39.51953125 C-15.90386239 36.39654728 -20.2888233 33.576522 -25 31 C-19.50815821 29.16938607 -14.07987988 32.72991129 -9 35 C-2.65013109 38.26014273 3.34177426 41.50994824 8 47 C9.77473771 45.22526229 9.13231858 42.87826984 9.13671875 40.51757812 C9.13091797 39.42606445 9.13091797 39.42606445 9.125 38.3125 C9.12886719 37.60416016 9.13273438 36.89582031 9.13671875 36.16601562 C9.12903062 32.00289267 8.81372802 28.10093088 8 24 C6.35 24.33 4.7 24.66 3 25 C3.50603992 22.83125748 3.99983813 21.00032373 5 19 C4.01 17.68 3.02 16.36 2 15 C-0.64 16.65 -3.28 18.3 -6 20 C-5 16 -5 16 -4 12 C-3.01 12 -2.02 12 -1 12 C-1 11.34 -1 10.68 -1 10 C-0.34 10 0.32 10 1 10 C0.505 5.05 0.505 5.05 0 0 Z " fill="#858585" transform="translate(632,336)"/>
<path d="M0 0 C0.66 0 1.32 0 2 0 C0.04299358 14.29129689 -4.33369267 26.38693131 -10.9921875 39.06494141 C-12.70546992 42.35454326 -14.349139 45.6787694 -16 49 C-16.6663754 50.33347893 -17.33296442 51.66685119 -18 53 C-18.66 53 -19.32 53 -20 53 C-20.0825 53.515625 -20.165 54.03125 -20.25 54.5625 C-21.32140225 58.04455732 -23.13523605 60.87200885 -25 64 C-25.66 63.67 -26.32 63.34 -27 63 C-26.8141333 62.45287354 -26.6282666 61.90574707 -26.43676758 61.34204102 C-23.23460498 51.89146746 -20.04447668 42.43670012 -17.1875 32.875 C-16.97730225 32.17947021 -16.76710449 31.48394043 -16.55053711 30.76733398 C-15.41189868 26.86711095 -14.75690467 23.16064931 -14.375 19.125 C-13.44018175 12.88651903 -9.00988953 9.31907078 -4.53125 5.3125 C-1.87331263 3.07013756 -1.87331263 3.07013756 0 0 Z " fill="#858585" transform="translate(641,418)"/>
<path d="M0 0 C1.75763672 -0.00193359 1.75763672 -0.00193359 3.55078125 -0.00390625 C5.36642578 0.00189453 5.36642578 0.00189453 7.21875 0.0078125 C8.42917969 0.00394531 9.63960937 0.00007813 10.88671875 -0.00390625 C12.05847656 -0.00261719 13.23023438 -0.00132812 14.4375 0 C16.02981445 0.00169189 16.02981445 0.00169189 17.65429688 0.00341797 C20.75008648 0.13413566 23.67651506 0.55911763 26.71875 1.1328125 C26.71875 1.4628125 26.71875 1.7928125 26.71875 2.1328125 C25.95433594 2.23303711 25.18992187 2.33326172 24.40234375 2.43652344 C2.46737026 5.34666884 -16.89940913 9.15259331 -37.00976562 18.43554688 C-37.77611328 18.78294922 -38.54246094 19.13035156 -39.33203125 19.48828125 C-40.36324097 19.96237427 -40.36324097 19.96237427 -41.4152832 20.44604492 C-43.28125 21.1328125 -43.28125 21.1328125 -46.28125 21.1328125 C-33.95164058 8.60012716 -17.86322036 0.01898035 0 0 Z " fill="#858585" transform="translate(552.28125,291.8671875)"/>
<path d="M0 0 C0.99 0.33 1.98 0.66 3 1 C2.01 1 1.02 1 0 1 C0 0.67 0 0.34 0 0 Z " fill="#858585" transform="translate(604,364)"/>
<path d="" fill="#858585" transform="translate(0,0)"/>
<path d="" fill="#858585" transform="translate(0,0)"/>
<path d="" fill="#858585" transform="translate(0,0)"/>
</svg>
