<?xml version="1.0" encoding="UTF-8"?>
<svg version="1.1" xmlns="http://www.w3.org/2000/svg" width="1280" height="423">
<path d="M0 0 C1.58221624 -0.00377751 3.16442755 -0.01063228 4.74661899 -0.02026224 C9.05557672 -0.03771283 13.36331812 -0.01195834 17.67214131 0.02139235 C22.33319828 0.04972983 26.99417601 0.03728866 31.6552887 0.02999878 C40.76760433 0.02202035 49.87944376 0.05091766 58.99165532 0.09203738 C69.60234966 0.1382836 80.21296477 0.14558462 90.82374558 0.15080565 C109.74683947 0.1612325 128.66972232 0.20360309 147.5927124 0.26550293 C165.96282891 0.32553889 184.3328595 0.36797686 202.70306396 0.3885498 C203.83630034 0.38982347 204.96953672 0.39109713 206.1371136 0.39240938 C210.69197445 0.39747469 215.24683538 0.40246233 219.80169643 0.40733603 C240.47407497 0.4297791 261.14643362 0.46569658 281.81878662 0.50476074 C282.86981115 0.50670795 283.92083568 0.50865515 285.00370944 0.51066136 C298.12136893 0.53510124 311.238987 0.56571149 324.35660362 0.6073494 C328.01627873 0.61880837 331.67594816 0.62798059 335.33563423 0.6350975 C339.53812994 0.64337632 343.74058387 0.65630341 347.94305393 0.67310089 C349.46890089 0.67841443 350.99475478 0.68204159 352.52060989 0.6838761 C354.58327207 0.68663741 356.64581876 0.69545473 358.70845413 0.70590973 C359.85749324 0.70932452 361.00653235 0.71273931 362.19039083 0.71625757 C364.86566162 0.84851074 364.86566162 0.84851074 366.86566162 1.84851074 C365.39211927 6.33978709 361.90939143 7.90904232 357.99066162 10.03601074 C357.05286865 10.56871582 357.05286865 10.56871582 356.09613037 11.11218262 C353.0840451 12.79016247 350.28759991 14.2724558 346.86566162 14.84851074 C346.86566162 15.50851074 346.86566162 16.16851074 346.86566162 16.84851074 C344.619019 18.16706169 342.36868856 19.47845046 340.11566162 20.78601074 C339.1643335 21.34578613 339.1643335 21.34578613 338.19378662 21.91687012 C335.1027453 23.70387838 332.35098494 25.09736348 328.86566162 25.84851074 C328.86566162 26.50851074 328.86566162 27.16851074 328.86566162 27.84851074 C327.780271 28.45179199 326.69488037 29.05507324 325.57659912 29.67663574 C324.13121463 30.48379851 322.68590616 31.29109742 321.24066162 32.09851074 C320.52781006 32.49425293 319.8149585 32.88999512 319.08050537 33.29772949 C315.81665358 35.12428875 312.61801285 36.97054973 309.52972412 39.08288574 C306.01609856 41.41156426 303.4810214 41.97350376 299.36185074 41.97879601 C298.43361126 41.98242035 297.50537179 41.9860447 296.54900384 41.98977888 C295.01678551 41.9881765 295.01678551 41.9881765 293.45361328 41.98654175 C292.36976404 41.98936303 291.2859148 41.99218431 290.16922164 41.99509108 C286.51887418 42.003458 282.86855696 42.00477712 279.21820068 42.00622559 C276.6084586 42.01089226 273.99871733 42.01603558 271.38897705 42.0216217 C265.759424 42.03315183 260.12987394 42.04139387 254.50031281 42.04774094 C245.60122196 42.05806421 236.7021685 42.07862733 227.80310059 42.1008606 C224.75877774 42.1083405 221.71445474 42.11575421 218.67013168 42.12314796 C217.52886973 42.12592381 217.52886973 42.12592381 216.36455198 42.12875574 C207.70183956 42.14968691 199.03912301 42.1685129 190.37640381 42.18640137 C189.58443296 42.18803955 188.79246211 42.18967773 187.97649214 42.19136555 C175.14536293 42.21764464 162.31423085 42.23629119 149.48308614 42.25299327 C136.31036896 42.27041692 123.13770823 42.29926557 109.96503615 42.33788264 C101.83988112 42.36127611 93.71481812 42.37527662 85.58962914 42.37721027 C79.36146602 42.3795699 73.1334359 42.39744283 66.90531921 42.42107964 C64.35075047 42.42828403 61.79616143 42.43036811 59.24158478 42.42697716 C55.75607202 42.42308929 52.27109677 42.43751586 48.78564453 42.45651245 C47.77308853 42.45098276 46.76053254 42.44545306 45.71729302 42.4397558 C39.95735451 42.49399948 36.00087029 43.22290068 30.86566162 45.84851074 C29.54290106 46.22159705 28.21334085 46.5789749 26.86566162 46.84851074 C26.86566162 47.50851074 26.86566162 48.16851074 26.86566162 48.84851074 C25.55444881 49.38112999 24.23928471 49.90403233 22.92242432 50.42253113 C20.60088065 51.69401615 20.60088065 51.69401615 18.86566162 53.84851074 C17.61238569 59.42108396 17.85509975 64.97822557 17.9574585 70.66418457 C17.95971553 72.40874121 17.95844755 74.15330545 17.95391846 75.89785767 C17.9516224 80.63154754 17.99866365 85.36361673 18.05451012 90.09692979 C18.10451108 95.04428791 18.10921916 99.99168296 18.11871338 104.93925476 C18.1435814 114.30697009 18.20923435 123.67393878 18.2895093 133.04132527 C18.37891972 143.70618709 18.4229122 154.37108453 18.46307278 165.03622782 C18.54670026 186.9740835 18.68903024 208.91122381 18.86566162 230.84851074 C28.10566162 231.17851074 37.34566162 231.50851074 46.86566162 231.84851074 C46.91080967 217.96652874 46.94751852 204.08459535 46.96928596 190.20255661 C46.97973216 183.7568769 46.99390668 177.31124994 47.01654053 170.86560059 C47.03823898 164.64755992 47.05022395 158.42957005 47.05541611 152.21149445 C47.05911725 149.8367864 47.06634444 147.46208119 47.07712173 145.08739471 C47.09159667 141.76649421 47.09364122 138.4458048 47.0927124 135.12487793 C47.10349823 133.64565605 47.10349823 133.64565605 47.11450195 132.1365509 C47.11175262 131.23073776 47.1090033 130.32492462 47.10617065 129.3916626 C47.10893603 128.21361116 47.10893603 128.21361116 47.11175728 127.01176071 C46.83069077 124.54110713 46.17689154 122.95319901 44.86566162 120.84851074 C42.83206682 119.58046508 42.83206682 119.58046508 40.86566162 118.84851074 C40.86566162 118.18851074 40.86566162 117.52851074 40.86566162 116.84851074 C40.24691162 116.72476074 39.62816162 116.60101074 38.99066162 116.47351074 C36.86566162 115.84851074 36.86566162 115.84851074 34.86566162 113.84851074 C34.41644287 111.35241699 34.41644287 111.35241699 34.17816162 108.41101074 C34.04861084 106.95888184 34.04861084 106.95888184 33.91644287 105.47741699 C33.86566162 102.84851074 33.86566162 102.84851074 34.86566162 99.84851074 C38.06431835 98.24918238 41.5344725 98.71026295 45.04730225 98.71911621 C46.31576241 98.71648773 46.31576241 98.71648773 47.60984802 98.71380615 C50.41388991 98.70939361 53.21786906 98.71232354 56.02191162 98.71569824 C57.96482353 98.71502503 59.90773535 98.71405486 61.85064697 98.71279907 C65.92613526 98.71132291 70.00160166 98.71347405 74.0770874 98.71813965 C79.3096923 98.72383688 84.54224592 98.72055745 89.77484894 98.71456718 C93.78788644 98.71095938 97.80091172 98.71210117 101.81394958 98.71469498 C103.7437287 98.71536364 105.67350891 98.71453794 107.60328674 98.71221542 C110.29689488 98.70968533 112.99041913 98.71353458 115.684021 98.71911621 C116.88879341 98.71607986 116.88879341 98.71607986 118.11790466 98.71298218 C123.63713341 98.73424664 123.63713341 98.73424664 125.86566162 99.84851074 C127.41260581 105.00499136 126.88098864 109.91005173 124.86566162 114.84851074 C123.00707061 117.14254307 121.41989723 118.23256576 118.86566162 119.84851074 C117.87566162 119.84851074 116.88566162 119.84851074 115.86566162 119.84851074 C114.90534154 122.72947099 114.73249405 124.56430304 114.71417236 127.55874634 C114.7058287 128.52802567 114.69748505 129.49730499 114.68888855 130.49595642 C114.68261192 132.08997032 114.68261192 132.08997032 114.6762085 133.71618652 C114.66791519 134.83714218 114.65962189 135.95809784 114.65107727 137.11302185 C114.63365025 139.55529479 114.61849074 141.99758469 114.6053009 144.43988419 C114.58422418 148.32840473 114.5571919 152.21684389 114.52862549 156.10531616 C114.47359819 163.69362692 114.42559538 171.28197379 114.378685 178.87033844 C114.31528971 189.10817569 114.24820475 199.34597308 114.17378235 209.58373642 C114.1476629 213.37235045 114.12655816 217.16096901 114.10577393 220.94961548 C114.03132546 232.61513136 113.86532093 244.27440711 113.4730835 255.93395996 C113.42840313 257.52118457 113.42840313 257.52118457 113.38282013 259.14047432 C113.34553551 260.11186285 113.30825089 261.08325138 113.26983643 262.08407593 C113.24020561 262.93517881 113.2105748 263.7862817 113.18004608 264.66317558 C112.86566162 266.84851074 112.86566162 266.84851074 110.86566162 269.84851074 C109.23501399 270.90622813 107.56285289 271.9012412 105.86566162 272.84851074 C105.09974072 273.36580812 104.33381981 273.88310551 103.54468918 274.41607857 C100.52665675 276.0297711 98.71259823 276.23722135 95.3137207 276.26742554 C94.20918549 276.28429916 93.10465027 276.30117279 91.96664429 276.31855774 C90.76446259 276.32183578 89.56228088 276.32511383 88.32366943 276.32849121 C87.04992462 276.34350174 85.77617981 276.35851227 84.46383667 276.37397766 C80.97605784 276.41433871 77.48839567 276.43598505 74.00043583 276.45341635 C71.08319469 276.46983936 68.16607081 276.49578135 65.24890208 276.52182019 C58.36144359 276.5832947 51.47399608 276.63001502 44.58636475 276.66687012 C37.49653726 276.70500163 30.40713822 276.76481475 23.31757092 276.83594406 C17.21892946 276.89653413 11.12027634 276.94507404 5.02145648 276.98375428 C1.38429878 277.00684587 -2.25269873 277.03403816 -5.88973236 277.07220078 C-9.95143558 277.11404508 -14.01287433 277.13063652 -18.07476807 277.14489746 C-19.86589523 277.16803261 -19.86589523 277.16803261 -21.69320679 277.19163513 C-31.11233943 277.19125258 -39.10761475 275.80776638 -46.60308838 269.7349987 C-49.63847242 265.99542943 -49.22371139 261.76781202 -49.13433838 257.14367676 C-49.1452545 256.0675456 -49.15617062 254.99141445 -49.16741753 253.88267326 C-49.19425402 250.28831597 -49.1642291 246.69671605 -49.13433838 243.10241699 C-49.14197733 240.54267643 -49.15313392 237.98294427 -49.16757202 235.42323303 C-49.19361687 229.23297828 -49.18327907 223.04370578 -49.15637434 216.85348445 C-49.12711878 209.69140293 -49.14198577 202.52962354 -49.15987134 195.36752939 C-49.18989598 182.92994521 -49.18639948 170.49263826 -49.16070557 158.05505371 C-49.13028121 143.20738942 -49.15129412 128.36040183 -49.19431305 113.51274681 C-49.24456895 95.56665312 -49.28780865 77.62028467 -49.26916122 59.67411613 C-49.26784326 57.78582742 -49.26818351 55.89753666 -49.27035904 54.00924873 C-49.27292657 51.44278111 -49.26917823 48.87639797 -49.26373291 46.30993652 C-49.26576218 45.57840142 -49.26779144 44.84686632 -49.2698822 44.09316349 C-49.23521203 35.56074286 -48.74161324 28.50652629 -44.13433838 21.16101074 C-43.72916992 20.50745605 -43.32400146 19.85390137 -42.90655518 19.18054199 C-39.39179948 13.77804322 -35.8461666 10.8112546 -30.13433838 7.84851074 C-29.15580658 7.27247589 -28.17727479 6.69644103 -27.16909051 6.10295057 C-18.08919532 1.03332526 -10.35394759 -0.14604869 0 0 Z " fill="#858585" transform="translate(106.13433837890625,72.1514892578125)"/>
<path d="M0 0 C0.99 0.495 0.99 0.495 2 1 C2.1975647 153.11827761 2.1975647 153.11827761 1.59428024 225.50864792 C1.56243053 229.38345124 1.53250641 233.25826565 1.50296021 237.13308716 C1.4565107 243.1418692 1.40442198 249.1505735 1.34712219 255.1592617 C1.32685147 257.33817381 1.30808211 259.51710048 1.29090881 261.6960392 C1.26718802 264.62604431 1.23723294 267.55591417 1.20532227 270.48583984 C1.19956712 271.34554917 1.19381197 272.2052585 1.18788242 273.09101963 C1.1144556 278.8855444 1.1144556 278.8855444 0 280 C-1.45726219 280.10340574 -2.91946038 280.13850293 -4.38037109 280.14526367 C-5.7771962 280.15483345 -5.7771962 280.15483345 -7.20223999 280.16459656 C-8.21573517 280.16570938 -9.22923035 280.1668222 -10.2734375 280.16796875 C-11.82546371 280.17296135 -11.82546371 280.17296135 -13.40884399 280.17805481 C-15.60296177 280.18312905 -17.7970873 280.18546298 -19.99121094 280.18530273 C-23.35364489 280.18748613 -26.71574931 280.20562822 -30.078125 280.22460938 C-32.20572804 280.22754377 -34.33333264 280.22952826 -36.4609375 280.23046875 C-37.97510757 280.24124702 -37.97510757 280.24124702 -39.51986694 280.25224304 C-40.457388 280.24916641 -41.39490906 280.24608978 -42.36083984 280.24291992 C-43.18611176 280.24434494 -44.01138367 280.24576996 -44.86166382 280.24723816 C-47 280 -47 280 -50 278 C-50 277.34 -50 276.68 -50 276 C-64.00657557 276.19841764 -64.00657557 276.19841764 -77.75 278.5625 C-84.43011621 280.19434548 -90.94948567 280.33475209 -97.8125 280.375 C-98.87500977 280.38861572 -99.93751953 280.40223145 -101.03222656 280.41625977 C-109.35598631 280.36859468 -117.16652046 279.07629909 -124 274 C-131.16833151 266.62685902 -130.26626241 257.82383616 -130.16699219 248.17358398 C-130.15983152 246.77344158 -130.15354277 245.37329449 -130.14805603 243.97314453 C-130.13049487 240.18598165 -130.1000606 236.39902453 -130.06672192 232.61197162 C-130.03341578 228.64166944 -130.01021492 224.67130566 -129.9854126 220.70094299 C-129.9421098 214.03566659 -129.89025105 207.37049676 -129.83349609 200.70532227 C-129.76806531 193.0067365 -129.71704895 185.308155 -129.67355418 177.60941643 C-129.63124513 170.19244287 -129.57789136 162.77558624 -129.51981354 155.35872078 C-129.49537641 152.20697265 -129.47494321 149.05523641 -129.45778656 145.90344048 C-129.43713736 142.19084861 -129.40684715 138.47845607 -129.36920357 134.76599884 C-129.35114026 132.75862341 -129.34267734 130.75116875 -129.33451843 128.74372864 C-129.32046463 127.54237274 -129.30641083 126.34101685 -129.29193115 125.10325623 C-129.28380276 124.06334754 -129.27567436 123.02343885 -129.26729965 121.95201778 C-128.96978087 118.66626439 -128.3191949 116.02485339 -127 113 C-125.515 112.505 -125.515 112.505 -124 112 C-123.67 111.01 -123.34 110.02 -123 109 C-115.61696085 104.9017101 -107.91153285 104.42205606 -99.65625 104.4609375 C-98.52473511 104.44914459 -97.39322021 104.43735168 -96.22741699 104.42520142 C-92.65146774 104.3901958 -89.07610607 104.38079126 -85.5 104.375 C-81.8955049 104.35865526 -78.29126896 104.33667976 -74.68688965 104.30337524 C-72.45331535 104.2837407 -70.21962157 104.27441084 -67.98596191 104.27645874 C-66.98061401 104.26949982 -65.97526611 104.26254089 -64.93945312 104.25537109 C-63.61355164 104.25348282 -63.61355164 104.25348282 -62.26086426 104.2515564 C-59.71822056 104.14385459 -59.71822056 104.14385459 -57 102 C-56.41446149 97.92811919 -56.52770491 93.84402239 -56.55395508 89.73364258 C-56.56242756 87.70484732 -56.5337836 85.67890462 -56.50195312 83.65039062 C-56.50259766 82.36712891 -56.50324219 81.08386719 -56.50390625 79.76171875 C-56.50205322 78.58569092 -56.5002002 77.40966309 -56.49829102 76.19799805 C-57.09368749 72.40281633 -58.47755173 70.82145144 -61 68 C-61 67.34 -61 66.68 -61 66 C-62.0828125 65.62875 -62.0828125 65.62875 -63.1875 65.25 C-66 64 -66 64 -68.0625 62 C-71.93937726 59.36042399 -75.45838789 59.11250444 -80.0625 58.58984375 C-83.25056753 57.94968657 -85.32571708 56.8139897 -88 55 C-87.8984375 52.74609375 -87.8984375 52.74609375 -87 50 C-84.85714623 48.43360408 -82.95905415 47.26001367 -80.625 46.0625 C-79.99013672 45.71896484 -79.35527344 45.37542969 -78.70117188 45.02148438 C-76.80812195 43.99980818 -74.90482582 42.99949619 -73 42 C-71.16505371 41.00296279 -69.33155443 40.00325444 -67.5 39 C-66.62472656 38.525625 -65.74945312 38.05125 -64.84765625 37.5625 C-56.6228954 33.04959967 -48.50622853 28.34563342 -40.48046875 23.48828125 C-36.73369671 21.24021803 -32.94565494 19.0638287 -29.1640625 16.875 C-26.92613163 15.54881874 -24.71954985 14.20414429 -22.5234375 12.8125 C-21.9456958 12.44817871 -21.3679541 12.08385742 -20.77270508 11.70849609 C-19.14788345 10.67909447 -17.52884911 9.64057477 -15.91015625 8.6015625 C-13.16776719 7.09232825 -11.0802625 6.39708725 -8 6 C-8 5.34 -8 4.68 -8 4 C-6.71349294 3.30289269 -5.42059335 2.61757124 -4.125 1.9375 C-3.40570312 1.55464844 -2.68640625 1.17179687 -1.9453125 0.77734375 C-1.30335938 0.52082031 -0.66140625 0.26429687 0 0 Z M-72 149 C-72.04514913 159.2485051 -72.08185746 169.49694435 -72.10362434 179.74552631 C-72.1140703 184.50413515 -72.12824431 189.26267253 -72.15087891 194.02124023 C-72.17257834 198.61183056 -72.18456251 203.20235208 -72.18975449 207.79298973 C-72.19345546 209.54611482 -72.20068236 211.29923606 -72.21146011 213.05233192 C-72.22593655 215.50412824 -72.22797957 217.95563866 -72.22705078 220.4074707 C-72.23424133 221.13539322 -72.24143188 221.86331573 -72.24884033 222.61329651 C-72.233662 226.3058022 -72.10659383 227.84010925 -70 231 C-67.94484507 231.61944953 -67.94484507 231.61944953 -65.625 231.75 C-64.85414063 231.82734375 -64.08328125 231.9046875 -63.2890625 231.984375 C-60.96632981 232.00022983 -59.18333263 231.78869284 -57 231 C-55.47490511 227.94981022 -55.87024056 224.77450387 -55.88647461 221.42919922 C-55.88632858 220.64862152 -55.88618256 219.86804382 -55.8860321 219.06381226 C-55.88673014 216.47740931 -55.89451743 213.89107791 -55.90234375 211.3046875 C-55.90420832 209.51392659 -55.90563204 207.72316517 -55.90663147 205.93240356 C-55.91045359 201.21415809 -55.92028129 196.4959433 -55.93133545 191.77770996 C-55.94155611 186.96509211 -55.9461305 182.15246932 -55.95117188 177.33984375 C-55.96190382 167.89321351 -55.97949817 158.4466141 -56 149 C-61.28 149 -66.56 149 -72 149 Z " fill="#858585" transform="translate(835,70)"/>
<path d="M0 0 C0 56.1 0 112.2 0 170 C1.65 170.66 3.3 171.32 5 172 C7.26171875 173.21484375 7.26171875 173.21484375 9 175 C9.64453125 178.06640625 9.64453125 178.06640625 9.8125 181.5625 C9.88082031 182.71878906 9.94914063 183.87507812 10.01953125 185.06640625 C10 188 10 188 9 190 C1.20207759 190.0698019 -6.59577033 190.12296344 -14.39392757 190.15543652 C-18.01574248 190.17102948 -21.63734214 190.19214953 -25.2590332 190.22631836 C-28.7603775 190.25914149 -32.261516 190.2769008 -35.7630024 190.28463173 C-37.73537617 190.29279505 -39.70766826 190.31617711 -41.67991638 190.33988953 C-55.94901906 190.34253848 -55.94901906 190.34253848 -61 187 C-61.729599 184.89176941 -61.729599 184.89176941 -62 183 C-62.74443359 183.50660156 -62.74443359 183.50660156 -63.50390625 184.0234375 C-64.18324219 184.46945312 -64.86257813 184.91546875 -65.5625 185.375 C-66.55443359 186.03628906 -66.55443359 186.03628906 -67.56640625 186.7109375 C-73.92850729 190.08091076 -80.01813674 190.3078645 -87.0703125 190.30078125 C-88.02839813 190.30506638 -88.98648376 190.3093515 -89.97360229 190.31376648 C-91.99573989 190.31948965 -94.01789805 190.32002494 -96.04003906 190.31567383 C-99.09476995 190.3125311 -102.14851479 190.33593877 -105.203125 190.36132812 C-132.28352501 190.45398397 -132.28352501 190.45398397 -140 183 C-145.70873658 176.42707114 -145.6819605 170.09694865 -145.54833984 161.68676758 C-145.54717277 159.66123756 -145.5460108 157.63570752 -145.54504228 155.6101774 C-145.53929242 153.44672891 -145.52129828 151.28368751 -145.49988937 149.12034035 C-145.45629296 144.60254921 -145.4531669 140.08527407 -145.45645142 135.56730652 C-145.45855913 124.35186507 -145.41207439 113.13669071 -145.347229 101.92144775 C-145.29704884 93.19201837 -145.26208681 84.46315536 -145.27569926 75.73356169 C-145.28097279 71.24339376 -145.25381471 66.75496038 -145.20212913 62.26510394 C-145.17126037 58.81831471 -145.1856742 55.37196313 -145.19287109 51.92504883 C-145.15736397 50.06331528 -145.15736397 50.06331528 -145.12113953 48.16397095 C-144.98199617 42.18656374 -144.98199617 42.18656374 -147.61250687 37.09494591 C-149.7112123 35.49230297 -149.7112123 35.49230297 -153 34 C-152.26855469 30.20361328 -152.26855469 30.20361328 -149.8515625 28.37109375 C-146.72628685 26.86839272 -143.72825861 25.94433889 -140.375 25.0625 C-135.13060478 23.67639554 -130.09968288 21.98412307 -125.01123047 20.10375977 C-119.6582539 18.14163823 -114.26407845 16.29764175 -108.875 14.4375 C-107.20244141 13.85838867 -107.20244141 13.85838867 -105.49609375 13.26757812 C-102.33227093 12.17384197 -99.16646939 11.08604618 -96 10 C-94.68854004 9.54536377 -94.68854004 9.54536377 -93.35058594 9.08154297 C-92.17544434 8.67959717 -92.17544434 8.67959717 -90.9765625 8.26953125 C-90.30963379 8.03983643 -89.64270508 7.8101416 -88.95556641 7.57348633 C-85.64411211 6.60237445 -82.43996888 6.24571206 -79 6 C-78 7 -78 7 -77.87695217 9.24701023 C-77.87787396 10.2489992 -77.87879576 11.25098818 -77.87974548 12.28334045 C-77.87768349 14.00188988 -77.87768349 14.00188988 -77.87557983 15.75515747 C-77.88097275 17.65731522 -77.88097275 17.65731522 -77.88647461 19.59790039 C-77.88675648 20.93793231 -77.88659875 22.27796439 -77.8860321 23.61799622 C-77.88574413 27.26659438 -77.8916408 30.91515995 -77.89860606 34.56375051 C-77.90483966 38.37277516 -77.9054434 42.1818005 -77.90663147 45.99082947 C-77.90974477 53.20857754 -77.91795814 60.42631054 -77.92798096 67.64405197 C-77.93914214 75.85915257 -77.94465256 84.07425388 -77.94967639 92.28936017 C-77.96014075 109.19291551 -77.97774017 126.09645616 -78 143 C-74.89964527 144.72635163 -74.89964527 144.72635163 -71.375 144.75 C-68.84399771 144.1515662 -68.84399771 144.1515662 -67 142 C-66.68578349 140.05699159 -66.68578349 140.05699159 -66.71911621 137.80020142 C-66.70769592 136.91974655 -66.69627563 136.03929169 -66.68450928 135.13215637 C-66.68227356 134.16380356 -66.68003784 133.19545074 -66.67773438 132.19775391 C-66.66780457 131.17976212 -66.65787476 130.16177032 -66.64764404 129.1129303 C-66.61835405 125.73411387 -66.60478976 122.35548519 -66.59375 118.9765625 C-66.58225144 116.63487744 -66.57073592 114.29319246 -66.5592041 111.95150757 C-66.53817118 107.03699869 -66.52649418 102.12255539 -66.51953125 97.20800781 C-66.50855515 90.90356116 -66.46049316 84.59997704 -66.40358734 78.29580116 C-66.36638228 73.45742239 -66.35592603 68.61925241 -66.3528595 63.78074265 C-66.34679505 61.45623429 -66.33069952 59.1317301 -66.30448914 56.8073616 C-66.27046148 53.55791419 -66.27410239 50.31058731 -66.28710938 47.06103516 C-66.26867981 46.0967308 -66.25025024 45.13242645 -66.23126221 44.13890076 C-66.26301178 41.61310173 -66.32997729 39.43598373 -67 37 C-69.88482605 34.44223831 -69.88482605 34.44223831 -73 33 C-73 32.34 -73 31.68 -73 31 C-74.485 30.505 -74.485 30.505 -76 30 C-74.32417302 24.97251905 -69.53449756 23.35340579 -65 21 C-61.5131678 19.49063864 -57.97011216 18.22564288 -54.375 17 C-52.43855397 16.31841282 -50.50235765 15.63611581 -48.56640625 14.953125 C-47.62297363 14.62376953 -46.67954102 14.29441406 -45.70751953 13.95507812 C-41.8882504 12.60783008 -38.09921754 11.18570254 -34.3125 9.75 C-25.84779318 6.55998604 -17.38495483 3.39947001 -8.77734375 0.61328125 C-4.43145161 -0.88629032 -4.43145161 -0.88629032 0 0 Z " fill="#858585" transform="translate(398,158)"/>
<path d="M0 0 C0.90310913 -0.01007584 1.80621826 -0.02015167 2.73669434 -0.03053284 C5.71814406 -0.05899567 8.69908698 -0.064889 11.68066406 -0.06811523 C13.75946255 -0.07775907 15.838259 -0.08785175 17.91705322 -0.09837341 C22.27482825 -0.11633173 26.63242495 -0.1218949 30.99023438 -0.12011719 C36.55994173 -0.11981272 42.12849826 -0.16073142 47.6979332 -0.21243382 C51.99266758 -0.24588236 56.28712657 -0.25187211 60.58197784 -0.25028801 C62.63440154 -0.25381651 64.68683324 -0.26702088 66.73912811 -0.29028511 C86.78831777 -0.49624255 86.78831777 -0.49624255 93.94628906 6.43579102 C96.27363386 7.77185932 98.62238993 9.01956405 101.00097656 10.26000977 C103.12495853 11.543782 104.42675113 12.46117425 105.94628906 14.43579102 C106.31987667 17.25571918 106.31987667 17.25571918 106.31809998 20.75447083 C106.32192454 21.39800198 106.3257491 22.04153313 106.32968956 22.70456523 C106.33898905 24.86494911 106.32697465 27.0246945 106.31518555 29.18505859 C106.317653 30.73239915 106.32149085 32.27973805 106.32659912 33.82707214 C106.33494517 37.16161977 106.3341227 40.49599669 106.32641411 43.83054543 C106.31484451 49.1042892 106.32698298 54.37781275 106.34303284 59.65153503 C106.37925232 72.75296698 106.38545788 85.85439414 106.38293457 98.95587158 C106.38122346 109.13267899 106.38834719 119.30930695 106.42291313 129.48606414 C106.43970949 134.72723913 106.43791011 139.9679767 106.42209041 145.20914996 C106.41629068 148.47304705 106.42703883 151.73673708 106.44233704 155.000597 C106.44606138 156.5122696 106.44296056 158.02397706 106.43246651 159.53561783 C106.41907299 161.60298753 106.4303218 163.66885053 106.44749451 165.73616028 C106.44728522 166.8918794 106.44707594 168.04759851 106.44686031 169.23833942 C107.09968119 173.41784082 108.94925692 176.43875887 111.94628906 179.43579102 C112.07910156 181.24829102 112.07910156 181.24829102 112.07128906 183.43579102 C112.07386719 184.15766602 112.07644531 184.87954102 112.07910156 185.62329102 C111.94628906 187.43579102 111.94628906 187.43579102 110.94628906 188.43579102 C109.10672586 188.54536834 107.26295063 188.58488975 105.42016602 188.59692383 C104.23836258 188.60653137 103.05655914 188.61613892 101.83894348 188.6260376 C99.90627876 188.63241241 99.90627876 188.63241241 97.93457031 188.63891602 C96.61845261 188.64461609 95.3023349 188.65031616 93.94633484 188.65618896 C91.15277723 188.66671153 88.35924848 188.67254499 85.56567383 188.67602539 C81.99573119 188.68149284 78.42617331 188.70547735 74.8563509 188.73399734 C72.10673436 188.7526822 69.35720906 188.75783256 66.60753441 188.75936127 C64.65443374 188.76384177 62.70138202 188.78246718 60.74836731 188.80133057 C58.95202095 188.79682892 58.95202095 188.79682892 57.11938477 188.79223633 C56.06983109 188.79588196 55.0202774 188.79952759 53.93891907 188.80328369 C50.44644321 188.37441033 48.06137799 187.01787523 44.94628906 185.43579102 C41.98242328 186.11976004 39.64923474 187.08431818 36.94628906 188.43579102 C35.5083253 188.54527113 34.06554821 188.59479244 32.62353516 188.61279297 C31.28106216 188.63204582 31.28106216 188.63204582 29.91146851 188.65168762 C28.94069366 188.65907455 27.96991882 188.66646149 26.96972656 188.67407227 C25.97051178 188.68214401 24.971297 188.69021576 23.94180298 188.6985321 C21.821734 188.71238195 19.70164263 188.72310006 17.58154297 188.73095703 C14.35503089 188.74811162 11.12955894 188.79198321 7.90332031 188.83618164 C5.84212992 188.84631371 3.78093082 188.8548282 1.71972656 188.86157227 C0.76109711 188.87908035 -0.19753235 188.89658844 -1.18521118 188.91462708 C-10.38153908 188.88518772 -16.10121909 185.43525638 -23.36621094 179.99829102 C-24.37296875 179.25708008 -25.37972656 178.51586914 -26.41699219 177.75219727 C-30.28529001 174.35382599 -31.88536964 171.91619705 -32.47503662 166.73062134 C-32.51093082 165.27407865 -32.53056967 163.81707764 -32.53710938 162.36010742 C-32.55945145 161.16155876 -32.55945145 161.16155876 -32.58224487 159.938797 C-32.62593173 157.30490272 -32.64648192 154.67155 -32.66308594 152.03735352 C-32.68035291 150.20038853 -32.69762595 148.36342361 -32.71490479 146.52645874 C-32.74638246 142.6781768 -32.763945 138.83008193 -32.77441406 134.98168945 C-32.79087516 130.05910997 -32.86297997 125.13901758 -32.94832993 120.2172184 C-33.00430159 116.42352143 -33.01983015 112.63042061 -33.02442169 108.83634567 C-33.03348032 107.02220408 -33.05749746 105.20807128 -33.09697723 103.3943367 C-33.38334256 89.22936793 -33.38334256 89.22936793 -30.12414551 84.83294678 C-27.83865257 83.03276824 -25.64663684 81.73858498 -23.05371094 80.43579102 C-22.35888611 79.88879547 -21.66406128 79.34179993 -20.94818115 78.77822876 C-19.05371094 77.43579102 -19.05371094 77.43579102 -16.05371094 77.43579102 C-15.55871094 75.95079102 -15.55871094 75.95079102 -15.05371094 74.43579102 C-6.51846006 68.02012744 3.40457105 63.67621798 13.08251953 59.30053711 C14.80909394 58.49944639 16.50639805 57.63607129 18.20019531 56.76782227 C24.12645547 53.89320674 29.4238502 54.35814293 35.94628906 54.43579102 C35.94628906 49.15579102 35.94628906 43.87579102 35.94628906 38.43579102 C16.78275347 36.92174193 3.06186337 45.05927751 -12.73950195 55.15112305 C-15.05371094 56.43579102 -15.05371094 56.43579102 -17.55371094 56.31079102 C-20.57758366 55.25243556 -22.56693649 54.51237586 -25.05371094 52.43579102 C-25.60751091 49.31251487 -25.82588844 46.73698129 -25.82324219 43.60375977 C-25.83514084 42.73439285 -25.84703949 41.86502594 -25.85929871 40.96931458 C-25.87584725 39.12935336 -25.87919443 37.28923318 -25.87036133 35.44921875 C-25.86623822 32.6418693 -25.93118126 29.84176331 -26.00097656 27.03540039 C-26.0084599 25.24569953 -26.01184771 23.45597593 -26.01074219 21.66625977 C-26.0363472 20.83168747 -26.06195221 19.99711517 -26.08833313 19.13725281 C-26.01700468 15.50662326 -25.90322075 13.31495239 -23.31381226 10.63516235 C-21.18139648 9.04638672 -21.18139648 9.04638672 -19.06303406 7.7167511 C-17.04131886 6.5344345 -17.04131886 6.5344345 -15.60823059 4.96012878 C-10.75889121 0.20494209 -6.46086007 -0.01037241 0 0 Z M31.94628906 100.43579102 C30.64001278 104.85032277 30.81746296 109.3693352 30.81347656 113.95141602 C30.81251984 114.64845642 30.81156311 115.34549683 30.81057739 116.06365967 C30.80990089 117.52592052 30.81171794 118.98818447 30.81591797 120.45043945 C30.82130643 122.69302021 30.81593848 124.93540365 30.80957031 127.17797852 C30.81023055 128.60245812 30.81151059 130.02693761 30.81347656 131.45141602 C30.81460449 132.74337891 30.81573242 134.0353418 30.81689453 135.36645508 C30.73300818 138.35018229 30.73300818 138.35018229 31.94628906 140.43579102 C36.00163959 140.78011323 39.90283251 140.96881658 43.94628906 140.43579102 C48.76031003 135.39786209 49.09113372 130.36330729 49.04394531 123.70532227 C49.04253036 122.95490158 49.04111542 122.2044809 49.03965759 121.43132019 C49.03406466 119.03693641 49.0215135 116.64264649 49.00878906 114.24829102 C49.00377315 112.62394341 48.9992104 110.99959433 48.99511719 109.37524414 C48.98409755 105.39539033 48.9668378 101.41560658 48.94628906 97.43579102 C47.05118207 97.35418354 45.15504402 97.29632642 43.25878906 97.24829102 C42.20304688 97.21348633 41.14730469 97.17868164 40.05957031 97.14282227 C36.4583006 97.48171214 34.69119593 98.07665484 31.94628906 100.43579102 Z " fill="#858585" transform="translate(972.0537109375,160.564208984375)"/>
<path d="M0 0 C1.37170349 -0.01511375 1.37170349 -0.01511375 2.77111816 -0.03053284 C5.78983843 -0.05899507 8.80805825 -0.06488873 11.8269043 -0.06811523 C13.93051864 -0.07775823 16.03413096 -0.08785085 18.13774109 -0.09837341 C22.54679018 -0.11633095 26.95566301 -0.12189489 31.36474609 -0.12011719 C37.0040477 -0.11981253 42.64221435 -0.16075196 48.28124714 -0.21243382 C52.62655285 -0.24585491 56.971586 -0.25187297 61.31700706 -0.25028801 C63.39537655 -0.25381985 65.47375371 -0.26704309 67.55199623 -0.29028511 C70.46515049 -0.31981205 73.37586565 -0.31100756 76.2890625 -0.29296875 C77.56661659 -0.31825653 77.56661659 -0.31825653 78.86997986 -0.34405518 C84.59948507 -0.25428356 87.71516377 1.21540864 92.06424236 4.94139194 C93.8124283 6.41372957 95.5203271 7.47552057 97.52612305 8.56079102 C100.70246581 10.35872088 103.23659381 11.87933913 105.83862305 14.43579102 C106.455513 17.41000175 106.455513 17.41000175 106.44421387 20.95065308 C106.44904171 21.60320576 106.45386956 22.25575844 106.45884371 22.92808545 C106.46907787 25.11345066 106.44375958 27.29695365 106.41870117 29.48217773 C106.41896782 31.0493692 106.42150104 32.61656169 106.4261322 34.18374634 C106.43153795 37.55824996 106.42148143 40.93223115 106.39964294 44.30666733 C106.36579748 49.64354315 106.36986288 54.97997577 106.37976074 60.31692505 C106.39675853 72.61150689 106.36397627 84.90586316 106.33083344 97.20039368 C106.30097648 108.46322218 106.28162599 119.72580499 106.30249929 130.98866856 C106.31089283 136.29272076 106.29507739 141.59598133 106.26070404 146.89992118 C106.24424689 150.20205693 106.24841897 153.50393502 106.2581501 156.80608749 C106.25840988 158.33552394 106.25009937 159.86498992 106.23251152 161.39432526 C105.74060571 170.3610839 105.74060571 170.3610839 109.31628418 178.1892395 C110.56484192 179.3012825 110.56484192 179.3012825 111.83862305 180.43579102 C112.77612305 183.68579102 112.77612305 183.68579102 112.83862305 186.43579102 C110.20364231 189.07077176 109.0145749 188.69378716 105.33837891 188.71044922 C104.18635483 188.71998123 103.03433075 188.72951324 101.84739685 188.73933411 C99.96940147 188.737967 99.96940147 188.737967 98.0534668 188.73657227 C96.7680751 188.74085739 95.48268341 188.74514252 94.15834045 188.7495575 C91.43038831 188.7570298 88.70256549 188.75672376 85.97460938 188.75146484 C82.5002353 188.74570588 79.02640055 188.76250829 75.55211544 188.78580952 C72.21921169 188.80421944 68.88642093 188.80035816 65.5534668 188.79907227 C64.3156395 188.80828201 63.07781219 188.81749176 61.80247498 188.82698059 C56.43509868 188.79850553 51.89038723 188.68695828 46.85644531 186.72558594 C44.79001328 185.86664865 44.79001328 185.86664865 42.83862305 185.43579102 C39.83950929 186.69973184 39.83950929 186.69973184 36.83862305 188.43579102 C33.45926067 188.89880627 30.09693899 188.85651565 26.69018555 188.83422852 C25.7188266 188.83709869 24.74746765 188.83996887 23.74667358 188.84292603 C21.69756485 188.84496191 19.64843648 188.83946541 17.59936523 188.8269043 C14.48075334 188.81087904 11.36344425 188.82675151 8.24487305 188.84594727 C6.24747438 188.84396407 4.25007651 188.84011882 2.25268555 188.83422852 C0.86637436 188.84333755 0.86637436 188.84333755 -0.54794312 188.85263062 C-7.8160949 188.77461246 -14.47075721 187.63884132 -19.91137695 182.37329102 C-22.19958066 180.19061127 -24.27381427 178.74774884 -27.16137695 177.43579102 C-27.16137695 176.77579102 -27.16137695 176.11579102 -27.16137695 175.43579102 C-28.12043945 175.09547852 -28.12043945 175.09547852 -29.09887695 174.74829102 C-31.16137695 173.43579102 -31.16137695 173.43579102 -31.78120422 171.35098267 C-32.25472466 167.71999411 -32.3088948 164.13476921 -32.30664062 160.48022461 C-32.30999924 159.69427414 -32.31335785 158.90832367 -32.31681824 158.09855652 C-32.32628855 155.51043096 -32.32826898 152.9223703 -32.3293457 150.33422852 C-32.33255962 148.5325213 -32.3359238 146.73081434 -32.33943176 144.92910767 C-32.34541221 141.15821731 -32.34727264 137.38734984 -32.34667969 133.61645508 C-32.34657781 128.77970651 -32.36026144 123.9431039 -32.3774519 119.10639 C-32.38855398 115.38841066 -32.39059949 111.67046691 -32.39006996 107.95247269 C-32.39125158 106.16865152 -32.39568348 104.38482948 -32.40340233 102.60102463 C-32.41317159 100.11143385 -32.41033706 97.62216402 -32.40429688 95.13256836 C-32.40991638 94.39379959 -32.41553589 93.65503082 -32.42132568 92.89387512 C-32.39838955 89.18403147 -32.2761178 87.60790229 -30.16137695 84.43579102 C-28.52533993 83.386429 -26.85020253 82.39789598 -25.16137695 81.43579102 C-23.87130716 80.61402718 -22.58658419 79.78383798 -21.3059082 78.94750977 C-20.60651123 78.49158447 -19.90711426 78.03565918 -19.18652344 77.56591797 C-18.4563501 77.08985107 -17.72617676 76.61378418 -16.97387695 76.12329102 C-8.13245638 70.39577108 0.68022773 64.93956265 10.08862305 60.18579102 C10.7628833 59.84394775 11.43714355 59.50210449 12.13183594 59.14990234 C20.36458336 55.06053294 26.62092713 54.23095333 35.83862305 54.43579102 C35.83862305 49.15579102 35.83862305 43.87579102 35.83862305 38.43579102 C21.17627164 38.05668973 21.17627164 38.05668973 8.1237793 43.75610352 C5.47058281 45.70631632 2.73949018 47.06667686 -0.22387695 48.49829102 C-3.94869176 50.30571078 -7.50071577 52.22218287 -11.03637695 54.37329102 C-13.96623018 56.02100233 -15.00352584 56.43579102 -18.47387695 56.43579102 C-21.42256947 55.3386031 -22.98874711 54.72659973 -25.16137695 52.43579102 C-25.65311965 49.40894763 -25.88801845 46.74948512 -25.9387207 43.70922852 C-25.95914932 42.84697662 -25.97957794 41.98472473 -26.00062561 41.09634399 C-26.03403009 39.26907039 -26.05598274 37.44155703 -26.06738281 35.61401367 C-26.09857033 32.83808305 -26.20958747 30.07267001 -26.32348633 27.29907227 C-26.5955673 14.38217081 -26.5955673 14.38217081 -22.82202148 9.26098633 C-20.03114932 6.9459642 -17.34694144 5.15617522 -14.16137695 3.43579102 C-13.46631042 2.91790512 -12.7712439 2.40001923 -12.05511475 1.86643982 C-8.00285307 -0.13697712 -4.46398015 -0.00707533 0 0 Z M30.83862305 101.43579102 C30.83862305 114.30579102 30.83862305 127.17579102 30.83862305 140.43579102 C35.12862305 140.43579102 39.41862305 140.43579102 43.83862305 140.43579102 C48.57267386 134.5182275 48.98566959 131.66454794 48.9362793 124.48657227 C48.93486435 123.71395554 48.9334494 122.94133881 48.93199158 122.14530945 C48.92639771 119.67959712 48.91384637 117.21397586 48.90112305 114.74829102 C48.89610725 113.07576629 48.89154448 111.40324013 48.88745117 109.73071289 C48.87643029 105.63237055 48.85916989 101.53409622 48.83862305 97.43579102 C47.15263547 97.32603414 45.46448096 97.24941689 43.77612305 97.18579102 C42.3665332 97.11618164 42.3665332 97.11618164 40.9284668 97.04516602 C36.95620591 97.34679205 36.95620591 97.34679205 30.83862305 101.43579102 Z " fill="#858585" transform="translate(449.161376953125,160.564208984375)"/>
<path d="M0 0 C0.83273437 0.01546875 1.66546875 0.0309375 2.5234375 0.046875 C4.625 0.25 4.625 0.25 6.625 1.25 C6.625 1.91 6.625 2.57 6.625 3.25 C7.264375 3.394375 7.90375 3.53875 8.5625 3.6875 C10.625 4.25 10.625 4.25 11.625 5.25 C16.65069044 4.8558282 21.90152662 3.97347338 25.625 0.25 C27.34019575 0.11972565 29.06070496 0.05874379 30.78051758 0.02539062 C31.88289261 0.00287231 32.98526764 -0.019646 34.12104797 -0.04284668 C39.2120368 -0.11387571 44.30295295 -0.17166259 49.39428711 -0.20996094 C52.07122375 -0.23209106 54.74484852 -0.2772381 57.42163086 -0.33300781 C61.28801631 -0.41263314 65.15244286 -0.44536738 69.01953125 -0.46875 C70.79213066 -0.51823792 70.79213066 -0.51823792 72.60054016 -0.56872559 C83.71083834 -0.54235344 91.31630807 4.16709456 99.625 11.25 C100.93130576 13.86261151 100.74377705 15.7624704 100.7361145 18.68914795 C100.7357872 19.84437958 100.7354599 20.99961121 100.73512268 22.18984985 C100.72988083 23.46363495 100.72463898 24.73742004 100.71923828 26.04980469 C100.71735972 27.39995258 100.71601447 28.75010131 100.71516418 30.10025024 C100.71287783 33.01187645 100.70815101 35.92348546 100.70196915 38.8351059 C100.69357466 43.44082026 100.69899251 48.04645103 100.70797729 52.65216064 C100.7094483 53.42917729 100.71091931 54.20619394 100.71243489 55.00675654 C100.71550575 56.59588887 100.71862578 58.1850211 100.72179389 59.77415323 C100.74298471 70.49861817 100.75669329 81.22281146 100.72460938 91.94726562 C100.70307634 99.1784344 100.70623173 106.4091245 100.73801792 113.64026189 C100.75386839 117.4670645 100.75710836 121.292952 100.73025894 125.11971283 C100.70520828 128.72185701 100.71279388 132.32246953 100.74513817 135.92454147 C100.75411698 137.87240605 100.72846225 139.82033439 100.70170593 141.76803589 C100.62039719 147.93802252 100.62039719 147.93802252 103.21292496 153.29831219 C105.06848799 154.91664814 105.06848799 154.91664814 107.04520226 156.11660671 C108.625 157.25 108.625 157.25 109.43554688 160.21020508 C109.40525391 161.21978271 109.37496094 162.22936035 109.34375 163.26953125 C109.32570313 164.37361328 109.30765625 165.47769531 109.2890625 166.61523438 C109.20785156 168.32163086 109.20785156 168.32163086 109.125 170.0625 C109.10179687 171.21943359 109.07859375 172.37636719 109.0546875 173.56835938 C108.83582919 182.03917081 108.83582919 182.03917081 107.625 183.25 C105.24157225 183.35142246 102.88781197 183.38945134 100.50390625 183.3828125 C99.77645203 183.38435837 99.0489978 183.38590424 98.29949951 183.38749695 C95.9287742 183.3899702 93.5582094 183.38372581 91.1875 183.375 C90.38766693 183.37245209 89.58783386 183.36990417 88.76376343 183.36727905 C84.06100386 183.34955605 79.35856435 183.31631592 74.65600586 183.26959229 C72.88202713 183.25247944 71.1080061 183.2398717 69.33398438 183.22802734 C66.86646891 183.20223298 64.40371442 183.14364908 61.9375 183.0625 C60.67550781 183.02769531 59.41351562 182.99289062 58.11328125 182.95703125 C53.51624835 182.02526982 49.98746175 180.59784599 46.625 177.25 C45.4522399 173.84504236 45.56342696 170.58028474 45.64086914 167.00634766 C45.63155365 165.97632629 45.62223816 164.94630493 45.61264038 163.8850708 C45.5910196 160.47703411 45.62561064 157.07195436 45.66015625 153.6640625 C45.65517279 151.28574613 45.64652698 148.90743487 45.63438416 146.52914429 C45.61158015 140.25782083 45.63570294 133.98754407 45.67041016 127.71630859 C45.70410073 120.14363076 45.6843371 112.57095039 45.67137051 104.9982357 C45.66214343 99.09451542 45.66095474 93.19119111 45.68556213 87.2875061 C45.70462311 82.16098084 45.69589494 77.03566543 45.64900589 71.90930939 C45.63361065 70.20386499 45.6240793 68.49835166 45.6219902 66.79283905 C45.61182867 64.6740302 45.56302691 62.56059331 45.49780273 60.44287109 C45.47491684 59.32190033 45.45203094 58.20092957 45.42845154 57.04598999 C44.82965715 53.95574746 44.82965715 53.95574746 41.7169342 51.89614868 C38.83652418 50.36261567 37.32280244 49.70365504 34.125 49.75 C33.05765625 49.73453125 33.05765625 49.73453125 31.96875 49.71875 C28.22883114 50.56646494 26.46685463 51.5942618 23.625 54.25 C22.64404717 58.22304032 22.74693368 62.18207892 22.7578125 66.2578125 C22.7383255 67.51860626 22.7188385 68.77940002 22.69876099 70.07839966 C22.64604091 73.67655229 22.63437066 77.27389281 22.63038635 80.87239075 C22.62285851 84.19528068 22.59539089 87.51793444 22.5696373 90.84072495 C22.48609519 101.97261789 22.48477487 113.10389336 22.49804688 124.23602295 C22.50068211 128.13394442 22.49580786 132.03184353 22.49105644 135.92976189 C22.48744367 139.71304739 22.48859119 143.49631997 22.49118423 147.27960587 C22.4918469 149.07128023 22.49104842 150.8629558 22.48870468 152.65462875 C22.48615644 155.14071546 22.49004523 157.6267129 22.49560547 160.11279297 C22.49256912 161.19892128 22.49256912 161.19892128 22.48947144 162.30699158 C22.50762932 166.7045385 22.72398867 170.93957777 23.625 175.25 C26.05172567 177.03969026 26.05172567 177.03969026 28.625 178.25 C28.955 179.24 29.285 180.23 29.625 181.25 C26.55143886 183.03217836 24.33803517 183.4989405 20.79980469 183.49291992 C19.8449115 183.49599655 18.89001831 183.49907318 17.90618896 183.50224304 C16.88011536 183.49505753 15.85404175 183.48787201 14.796875 183.48046875 C13.73390198 183.48001053 12.67092896 183.47955231 11.57574463 183.4790802 C9.32636398 183.47605989 7.07698538 183.4681802 4.82763672 183.45581055 C1.40194189 183.43764288 -2.02348093 183.43530038 -5.44921875 183.43554688 C-7.63802315 183.43062779 -9.82682573 183.42479777 -12.015625 183.41796875 C-13.03360168 183.41685593 -14.05157837 183.4157431 -15.10040283 183.41459656 C-30.31070244 183.31429756 -30.31070244 183.31429756 -32.375 181.25 C-32.47922235 179.46228004 -32.51298513 177.67042705 -32.51976013 175.87968445 C-32.52665863 174.71452301 -32.53355713 173.54936157 -32.54066467 172.34889221 C-32.54327805 171.05901901 -32.54589142 169.76914581 -32.54858398 168.44018555 C-32.55488579 167.07708523 -32.56165117 165.713987 -32.56884766 164.35089111 C-32.58354468 161.40869768 -32.59525845 158.46651234 -32.60479546 155.52429771 C-32.62021411 150.87299721 -32.64416357 146.22176544 -32.66969299 141.57051086 C-32.74098388 128.34172912 -32.80067178 115.11290766 -32.85180664 101.8840332 C-32.88010344 94.58306381 -32.91548295 87.28216247 -32.95846039 79.98126441 C-32.98525178 75.35685719 -33.00314552 70.73252699 -33.01449764 66.10805738 C-33.02362094 63.22996817 -33.0409818 60.35197245 -33.06067657 57.47393799 C-33.07171974 55.50188255 -33.07290176 53.52977963 -33.07380676 51.55769348 C-33.08352509 50.38407257 -33.09324341 49.21045166 -33.10325623 48.00126648 C-33.10748816 46.98121867 -33.1117201 45.96117086 -33.11608028 44.91021252 C-33.38213162 42.17672781 -33.8844298 40.54104034 -35.375 38.25 C-36.035 37.92 -36.695 37.59 -37.375 37.25 C-37.375 36.26 -37.375 35.27 -37.375 34.25 C-38.035 34.25 -38.695 34.25 -39.375 34.25 C-39.375 33.59 -39.375 32.93 -39.375 32.25 C-42.345 33.57 -45.315 34.89 -48.375 36.25 C-49.035 35.59 -49.695 34.93 -50.375 34.25 C-50.35752073 31.49410223 -50.23636729 28.86213324 -50 26.125 C-49.94328125 25.37089844 -49.8865625 24.61679688 -49.828125 23.83984375 C-49.6865535 21.97581904 -49.53200041 20.11278863 -49.375 18.25 C-41.57580069 14.61510103 -33.68646954 11.2935803 -25.6875 8.125 C-24.61177734 7.69574219 -23.53605469 7.26648438 -22.42773438 6.82421875 C-20.34719176 5.9960787 -18.26490584 5.17230112 -16.18066406 4.35351562 C-14.45471019 3.67466847 -12.73190954 2.98765528 -11.01464844 2.28710938 C-7.23665826 0.78160787 -4.0760376 -0.12858163 0 0 Z " fill="#858585" transform="translate(1144.375,164.75)"/>
<path d="M0 0 C0.74056641 -0.00257813 1.48113281 -0.00515625 2.24414062 -0.0078125 C7.47898462 0.08693581 7.47898462 0.08693581 9.89453125 1.796875 C10.27996094 2.35890625 10.66539062 2.9209375 11.0625 3.5 C13.78115699 7.25149101 13.78115699 7.25149101 17.0625 10.5 C21.56994232 10.82781399 23.92859234 9.73857358 27.27758789 6.95239258 C31.10785274 4.1554273 34.52920421 3.84122337 39.18359375 4.01171875 C39.8449231 4.01675415 40.50625244 4.02178955 41.18762207 4.02697754 C43.62553115 4.05286659 46.0628155 4.12267211 48.5 4.1875 C53.965625 4.290625 59.43125 4.39375 65.0625 4.5 C65.0625 24.3 65.0625 44.1 65.0625 64.5 C60.51131699 63.36220425 59.10060395 61.96006283 56.0625 58.5 C56.0625 57.84 56.0625 57.18 56.0625 56.5 C55.505625 56.2525 54.94875 56.005 54.375 55.75 C51.6631765 54.28414946 49.4472366 52.44544301 47.0625 50.5 C42.84213934 48.38981967 37.64329949 48.98353731 33.0625 49.5 C29.76057127 50.78621643 26.95717078 52.47188672 24.0625 54.5 C23.0725 55.16 22.0825 55.82 21.0625 56.5 C20.61762545 58.39799564 20.61762545 58.39799564 20.70173645 60.61282349 C20.69761246 61.47381653 20.69348846 62.33480957 20.6892395 63.22189331 C20.70002533 64.16847809 20.71081116 65.11506287 20.72192383 66.09033203 C20.72148575 67.08548828 20.72104767 68.08064453 20.72059631 69.10595703 C20.72269217 72.40677271 20.746061 75.70708518 20.76953125 79.0078125 C20.77512436 81.29181643 20.7793958 83.57582395 20.78239441 85.85983276 C20.79386556 91.88020715 20.82335235 97.90036546 20.85650635 103.9206543 C20.88715831 110.06035437 20.90088931 116.20008926 20.91601562 122.33984375 C20.9482198 134.39332426 20.99944358 146.44664419 21.0625 158.5 C22.0525 158.83 23.0425 159.16 24.0625 159.5 C24.475 160.24894531 24.8875 160.99789062 25.3125 161.76953125 C27.63147959 165.38776056 30.43218371 167.0041028 34.0625 169.1875 C34.6915625 169.57744141 35.320625 169.96738281 35.96875 170.36914062 C37.66283411 171.41897029 39.36241155 172.45992185 41.0625 173.5 C42.5475 174.49 42.5475 174.49 44.0625 175.5 C43.7325 176.82 43.4025 178.14 43.0625 179.5 C31.10173515 179.52313322 19.14097558 179.54092011 7.18019295 179.55181217 C1.62679379 179.55703885 -3.9265901 179.56413261 -9.47998047 179.57543945 C-14.83565547 179.58627595 -20.19131577 179.59227846 -25.54700089 179.59487724 C-27.59400794 179.59673011 -29.64101416 179.60034809 -31.68801498 179.60573006 C-34.5470735 179.61295057 -37.4060706 179.61399051 -40.26513672 179.61352539 C-41.11821411 179.61712067 -41.9712915 179.62071594 -42.85021973 179.62442017 C-48.70939568 179.61405216 -48.70939568 179.61405216 -50.9375 178.5 C-51.0732683 176.43933896 -51.16983903 174.37607243 -51.25 172.3125 C-51.30800781 171.16394531 -51.36601563 170.01539063 -51.42578125 168.83203125 C-50.9375 165.5 -50.9375 165.5 -48.44245911 163.55586243 C-44.56106085 158.82084737 -45.27852426 154.21744481 -45.36987305 148.27416992 C-45.36914291 147.03473633 -45.36841278 145.79530273 -45.36766052 144.51831055 C-45.37054362 141.12761886 -45.3955844 137.73845659 -45.43053031 134.34803557 C-45.4618256 130.80200076 -45.46472701 127.2559447 -45.47065735 123.70979309 C-45.48618662 116.99843791 -45.52720216 110.28749084 -45.5774048 103.57631522 C-45.63332721 95.93432262 -45.66079196 88.29231035 -45.68588197 80.65016401 C-45.73811924 64.93320646 -45.8260431 49.2166559 -45.9375 33.5 C-46.576875 33.37625 -47.21625 33.2525 -47.875 33.125 C-48.555625 32.91875 -49.23625 32.7125 -49.9375 32.5 C-51.6631829 29.04863419 -51.42408162 25.27448311 -50.9375 21.5 C-48.89679076 19.05114891 -46.86475783 18.46939161 -43.9296875 17.234375 C-39.0970801 15.16801873 -34.36605101 12.89171929 -29.625 10.625 C-28.73876953 10.20347656 -27.85253906 9.78195313 -26.93945312 9.34765625 C-26.05580078 8.92613281 -25.17214844 8.50460938 -24.26171875 8.0703125 C-23.37798584 7.65104492 -22.49425293 7.23177734 -21.58374023 6.79980469 C-19.8209776 5.93395468 -18.0773827 5.02793184 -16.35571289 4.08300781 C-10.71317475 1.02002468 -6.41379748 -0.25492962 0 0 Z " fill="#858585" transform="translate(623.9375,170.5)"/>
<path d="M0 0 C0 59.73 0 119.46 0 181 C-22.77 181 -45.54 181 -69 181 C-71.55049551 178.44950449 -71.2606479 176.76517246 -71.2734375 173.28320312 C-71.26570312 172.55037109 -71.25796875 171.81753906 -71.25 171.0625 C-71.25773438 170.33353516 -71.26546875 169.60457031 -71.2734375 168.85351562 C-71.25946171 165.04161777 -71.16125927 163.2418889 -69 160 C-68.01 160 -67.02 160 -66 160 C-66 159.34 -66 158.68 -66 158 C-64.515 157.01 -64.515 157.01 -63 156 C-62.53417986 153.91634126 -62.53417986 153.91634126 -62.59213257 151.46525574 C-62.57789246 150.51051865 -62.56365234 149.55578156 -62.54898071 148.57211304 C-62.54876923 147.52117462 -62.54855774 146.47023621 -62.54833984 145.38745117 C-62.53665771 144.28328354 -62.52497559 143.17911591 -62.51293945 142.04148865 C-62.47922386 138.37522816 -62.46860282 134.70937082 -62.4609375 131.04296875 C-62.44876562 128.50189567 -62.43627992 125.96082408 -62.42349243 123.41975403 C-62.40097968 118.08570409 -62.39138257 112.75180599 -62.38916016 107.41772461 C-62.38612708 101.25528244 -62.34570997 95.09384476 -62.28801191 88.93169421 C-62.23445554 83.0028664 -62.21957943 77.07434154 -62.21904373 71.14525795 C-62.21364957 68.62340576 -62.19674191 66.10155133 -62.16819382 63.57985497 C-62.13159624 60.05260119 -62.1391436 56.52806773 -62.15771484 53.00073242 C-62.13726105 51.9558667 -62.11680725 50.91100098 -62.09573364 49.83447266 C-62.04324953 44.60720882 -62.04324953 44.60720882 -64.5795784 40.28258705 C-66.44386629 38.91447883 -66.44386629 38.91447883 -68.40070534 37.902318 C-70 37 -70 37 -71 35 C-71.30859375 32.79296875 -71.30859375 32.79296875 -71.4375 30.1875 C-71.49808594 29.33542969 -71.55867187 28.48335937 -71.62109375 27.60546875 C-70.69793853 23.73286164 -68.20676757 22.05688978 -65 20 C-62.31035127 18.5397686 -59.55190811 17.2907594 -56.75 16.0625 C-51.92670476 13.87729817 -47.24593755 11.6923556 -42.75 8.875 C-41.58404297 8.17117187 -41.58404297 8.17117187 -40.39453125 7.453125 C-38.70768422 6.42945926 -37.03979911 5.37421885 -35.38671875 4.296875 C-23.22469832 -2.59762135 -15.88510598 0 0 0 Z " fill="#858585" transform="translate(924,169)"/>
<path d="M0 0 C1.10444458 -0.00986435 1.10444458 -0.00986435 2.23120117 -0.01992798 C12.00120378 -0.04096764 19.39911427 1.39953016 27.625 7.0625 C28.34365234 7.51052979 29.06230469 7.95855957 29.80273438 8.42016602 C34.36166643 11.38724429 34.36166643 11.38724429 35.30126953 13.79663086 C36.00083441 18.69305745 35.67939788 23.65840666 35.54785156 28.58959961 C35.51591338 29.94811293 35.49477892 31.30692261 35.484375 32.66577148 C35.46915667 34.63297873 35.41865344 36.59981346 35.3671875 38.56640625 C35.3451123 39.74017822 35.32303711 40.9139502 35.30029297 42.12329102 C34.625 45.0625 34.625 45.0625 32.37011719 46.74169922 C31.46422852 47.17756348 30.55833984 47.61342773 29.625 48.0625 C28.5119751 48.94917358 28.5119751 48.94917358 27.37646484 49.85375977 C19.45635489 55.87909508 12.27987257 56.1805353 2.70117188 56.0300293 C0.25797357 56.00009768 -2.17465629 56.05016737 -4.6171875 56.10742188 C-15.88596835 56.17446902 -22.33599116 53.76348015 -31.375 47.0625 C-32.12958496 46.71050537 -32.88416992 46.35851074 -33.66162109 45.99584961 C-35.375 45.0625 -35.375 45.0625 -36.375 42.0625 C-36.60919897 37.94138542 -36.5601762 33.8145629 -36.5625 29.6875 C-36.57474609 28.55054688 -36.58699219 27.41359375 -36.59960938 26.2421875 C-36.60154297 25.14390625 -36.60347656 24.045625 -36.60546875 22.9140625 C-36.60957764 21.91197754 -36.61368652 20.90989258 -36.61791992 19.87744141 C-36.20870238 15.13545316 -34.91130521 12.63348011 -31.65625 9.16796875 C-21.79542651 1.06093408 -12.31261687 -0.01767156 0 0 Z " fill="#858585" transform="translate(889.375,104.9375)"/>
<path d="M0 0 C1.15113281 -0.01417969 2.30226563 -0.02835937 3.48828125 -0.04296875 C6.53824315 0.17674767 8.23880036 0.38905314 10.6875 2.1875 C11.63034862 6.10394812 12.06837404 9.35173878 10.6875 13.1875 C12.0075 13.8475 13.3275 14.5075 14.6875 15.1875 C15.161875 14.383125 15.63625 13.57875 16.125 12.75 C17.6875 10.1875 17.6875 10.1875 18.6875 9.1875 C26.20988806 8.94869403 26.20988806 8.94869403 28.6875 10.1875 C29.3125 13.25 29.3125 13.25 29.6875 16.1875 C26.3875 16.1875 23.0875 16.1875 19.6875 16.1875 C21.72552135 20.24774321 21.72552135 20.24774321 25.6875 22.1875 C26.6775 22.1875 27.6675 22.1875 28.6875 22.1875 C28.6875 22.8475 28.6875 23.5075 28.6875 24.1875 C26.13246838 25.85809759 24.7836367 26.1915057 21.6875 26.0625 C18.30582387 25.0761778 16.92401292 23.85411156 14.6875 21.1875 C14.213125 21.826875 13.73875 22.46625 13.25 23.125 C7.97032075 27.37449793 0.19315567 26.30578465 -6.3125 26.1875 C-6.6425 25.1975 -6.9725 24.2075 -7.3125 23.1875 C-6.9825 22.5275 -6.6525 21.8675 -6.3125 21.1875 C-6.2140658 18.36475463 -6.17351708 15.57221903 -6.1875 12.75 C-6.18363281 11.97333984 -6.17976562 11.19667969 -6.17578125 10.39648438 C-6.18150011 7.07668828 -6.25581169 4.35756494 -7.3125 1.1875 C-5.45615553 -0.66884447 -2.48420097 0.01381647 0 0 Z M1.6875 2.1875 C-0.04002264 3.91502264 0.55530436 6.11210978 0.55078125 8.41210938 C0.55464844 9.10111328 0.55851563 9.79011719 0.5625 10.5 C0.55863281 11.17740234 0.55476562 11.85480469 0.55078125 12.55273438 C0.46456124 17.48521013 0.46456124 17.48521013 1.6875 22.1875 C2.6775 22.5175 3.6675 22.8475 4.6875 23.1875 C6.29164215 22.00226003 6.29164215 22.00226003 7.6875 20.1875 C7.93819913 17.56179296 7.93819913 17.56179296 7.6875 15.1875 C5.2125 14.1975 5.2125 14.1975 2.6875 13.1875 C3.368125 12.630625 4.04875 12.07375 4.75 11.5 C6.96847119 9.35496056 6.96847119 9.35496056 6.6875 6.5625 C5.89173043 4.04256227 5.89173043 4.04256227 3.625 2.875 C2.985625 2.648125 2.34625 2.42125 1.6875 2.1875 Z M22.6875 11.1875 C21.6975 11.6825 21.6975 11.6825 20.6875 12.1875 C20.6875 12.8475 20.6875 13.5075 20.6875 14.1875 C22.0075 13.8575 23.3275 13.5275 24.6875 13.1875 C24.0275 12.5275 23.3675 11.8675 22.6875 11.1875 Z " fill="#858585" transform="translate(900.3125,357.8125)"/>
<path d="M0 0 C1.32 0.33 2.64 0.66 4 1 C4.33 2.65 4.66 4.3 5 6 C4.34 6 3.68 6 3 6 C3.66 8.97 4.32 11.94 5 15 C5.5775 14.195625 6.155 13.39125 6.75 12.5625 C9.10575499 9.87955682 9.72374528 9.6778458 13 9 C13.33 8.01 13.66 7.02 14 6 C13.01 6.66 12.02 7.32 11 8 C8.8125 7.625 8.8125 7.625 7 7 C7.33 5.68 7.66 4.36 8 3 C9.45742463 2.91903197 10.91612807 2.86082226 12.375 2.8125 C13.18710938 2.77769531 13.99921875 2.74289062 14.8359375 2.70703125 C15.55007813 2.80371094 16.26421875 2.90039062 17 3 C19.10827055 6.16240582 19.33817465 7.50657469 19.625 11.1875 C19.69976563 12.08855469 19.77453125 12.98960937 19.8515625 13.91796875 C19.90054687 14.60503906 19.94953125 15.29210937 20 16 C20.66 16 21.32 16 22 16 C21.98839844 15.01257813 21.97679687 14.02515625 21.96484375 13.0078125 C21.95582031 11.72648437 21.94679688 10.44515625 21.9375 9.125 C21.92589844 7.84882813 21.91429687 6.57265625 21.90234375 5.2578125 C22 2 22 2 23 0 C24.32 0 25.64 0 27 0 C27 0.99 27 1.98 27 3 C29.97 3 32.94 3 36 3 C36.97772468 8.30764827 37.50130596 13.63108121 38 19 C35.9174133 19.19561869 33.83388144 19.38119313 31.75 19.5625 C30.58984375 19.66691406 29.4296875 19.77132813 28.234375 19.87890625 C25.44989632 19.98315606 23.62025599 19.77457914 21 19 C19.66400079 19.32248257 18.33106622 19.65772583 17 20 C10.83216783 20.22027972 10.83216783 20.22027972 7.875 19.4375 C5.88365165 18.8240713 5.88365165 18.8240713 3.4375 19.625 C1 20 1 20 -0.6328125 18.9609375 C-2.68567323 16.01654868 -2.36048172 13.54326581 -2.3125 10 C-2.30863281 8.7625 -2.30476563 7.525 -2.30078125 6.25 C-2 3 -2 3 0 0 Z M27 6 C27 9.3 27 12.6 27 16 C28.32 16 29.64 16 31 16 C31.33 13.03 31.66 10.06 32 7 C30.35 6.67 28.7 6.34 27 6 Z M13 13 C13 16 13 16 13 16 Z " fill="#858585" transform="translate(1160,364)"/>
<path d="M0 0 C0.68578125 -0.01224609 1.3715625 -0.02449219 2.078125 -0.03710938 C5.81796797 -0.04802331 7.4349737 0.0608158 10.625 2.1875 C10.295 3.8375 9.965 5.4875 9.625 7.1875 C8.965 7.1875 8.305 7.1875 7.625 7.1875 C6.965 6.1975 6.305 5.2075 5.625 4.1875 C2.55943402 3.45406572 2.55943402 3.45406572 -0.375 3.1875 C-0.375 5.4975 -0.375 7.8075 -0.375 10.1875 C1.275 9.5275 2.925 8.8675 4.625 8.1875 C5.625 9.1875 5.625 9.1875 5.6875 12.75 C5.666875 13.884375 5.64625 15.01875 5.625 16.1875 C4.635 16.5175 3.645 16.8475 2.625 17.1875 C1.965 16.1975 1.305 15.2075 0.625 14.1875 C0.41529441 18.32843698 0.41529441 18.32843698 1.625 22.1875 C4.86708567 21.83700425 6.24027704 21.62528819 8.4375 19.125 C8.829375 18.485625 9.22125 17.84625 9.625 17.1875 C10.615 17.5175 11.605 17.8475 12.625 18.1875 C12.955 19.1775 13.285 20.1675 13.625 21.1875 C14.285 20.5275 14.945 19.8675 15.625 19.1875 C15.23621812 16.17444043 14.36043126 14.79064689 12.625 12.1875 C12.625 11.1975 12.625 10.2075 12.625 9.1875 C14.605 9.1875 16.585 9.1875 18.625 9.1875 C18.955 10.5075 19.285 11.8275 19.625 13.1875 C20.285 13.1875 20.945 13.1875 21.625 13.1875 C21.625 11.8675 21.625 10.5475 21.625 9.1875 C24.1 9.6825 24.1 9.6825 26.625 10.1875 C26.625 10.8475 26.625 11.5075 26.625 12.1875 C25.635 12.1875 24.645 12.1875 23.625 12.1875 C23.625 12.8475 23.625 13.5075 23.625 14.1875 C22.965 14.1875 22.305 14.1875 21.625 14.1875 C21.99753906 14.80238281 22.37007812 15.41726563 22.75390625 16.05078125 C23.46353516 17.26314453 23.46353516 17.26314453 24.1875 18.5 C24.90099609 19.70076172 24.90099609 19.70076172 25.62890625 20.92578125 C26.625 23.1875 26.625 23.1875 25.625 26.1875 C23.645 25.8575 21.665 25.5275 19.625 25.1875 C19.625 23.5375 19.625 21.8875 19.625 20.1875 C18.965 20.1875 18.305 20.1875 17.625 20.1875 C17.295 21.8375 16.965 23.4875 16.625 25.1875 C-3.85887097 27.44556452 -3.85887097 27.44556452 -8.375 25.1875 C-8.21 24.300625 -8.045 23.41375 -7.875 22.5 C-6.87290548 15.51396962 -6.61106272 8.03478382 -8.375 1.1875 C-6.40200486 -0.78549514 -2.69011482 0.00250011 0 0 Z " fill="#858585" transform="translate(1096.375,357.8125)"/>
<path d="M0 0 C12.27980769 -0.49615385 12.27980769 -0.49615385 15.92578125 2.015625 C16.61027344 2.67046875 17.29476563 3.3253125 18 4 C18.495 3.34 18.99 2.68 19.5 2 C22.16356811 -0.13085449 22.8668508 -0.33679357 26.125 -0.4375 C27.40375 -0.293125 28.6825 -0.14875 30 0 C32 3 32 3 32 7 C29.03 7 26.06 7 23 7 C23.78130071 9.49552484 23.78130071 9.49552484 25 12 C27.89186786 13.33304698 27.89186786 13.33304698 30.1875 12.0625 C30.785625 11.711875 31.38375 11.36125 32 11 C31.375 13.4375 31.375 13.4375 30 16 C27.25 17.0625 27.25 17.0625 24 17 C21.37776138 15.51571399 19.1352735 14.1352735 17 12 C16.4225 12.66 15.845 13.32 15.25 14 C13 16 13 16 9 16 C9.309375 15.2575 9.61875 14.515 9.9375 13.75 C11.51138309 9.67642023 12.36384764 7.24308154 11 3 C10.01 3 9.02 3 8 3 C5.95869402 7.08261196 6.98902742 11.70336653 8 16 C7.34 16 6.68 16 6 16 C6.66 17.98 7.32 19.96 8 22 C2.25 23.125 2.25 23.125 0 22 C0 14.74 0 7.48 0 0 Z M25 2 C24.67 2.99 24.34 3.98 24 5 C24.99 5 25.98 5 27 5 C26.67 4.01 26.34 3.02 26 2 C25.67 2 25.34 2 25 2 Z " fill="#858585" transform="translate(1124,367)"/>
<path d="M0 0 C1.65 0 3.3 0 5 0 C6.25838557 2.51677113 6.20818973 4.41293288 6.31640625 7.2265625 C6.35830078 8.2578125 6.40019531 9.2890625 6.44335938 10.3515625 C6.48267578 11.43179687 6.52199219 12.51203125 6.5625 13.625 C6.60568359 14.71296875 6.64886719 15.8009375 6.69335938 16.921875 C6.7996453 19.6144517 6.90168057 22.30712253 7 25 C3.29220925 25.8129795 0.56202602 26.02156317 -3.1875 25.3125 C-4.04730469 25.16425781 -4.90710938 25.01601563 -5.79296875 24.86328125 C-8 24 -8 24 -9.3125 22.171875 C-10.43301166 18.63207679 -9.91219397 15.55077156 -9 12 C-7.75 10 -7.75 10 -6 9 C-3.3125 8.8125 -3.3125 8.8125 -1 9 C-1.33 9.99 -1.66 10.98 -2 12 C-2.66 12 -3.32 12 -4 12 C-3.91291331 13.45945288 -3.80473093 14.91765868 -3.6875 16.375 C-3.60048828 17.59316406 -3.60048828 17.59316406 -3.51171875 18.8359375 C-3.17009472 21.37921338 -3.17009472 21.37921338 0 23 C0 15.41 0 7.82 0 0 Z " fill="#858585" transform="translate(991,358)"/>
<path d="M0 0 C9.1796875 -0.1953125 9.1796875 -0.1953125 12 0 C14.85793316 2.85793316 14.40799941 5.14665584 14.625 9.125 C14.69976563 10.40632813 14.77453125 11.68765625 14.8515625 13.0078125 C14.92503906 14.48894531 14.92503906 14.48894531 15 16 C11.71303767 16.79953138 10.28976808 17.09658936 7 16 C4.36 16 1.72 16 -1 16 C-0.67 10.72 -0.34 5.44 0 0 Z M6 3 C4.61857444 4.16377902 4.61857444 4.16377902 4.75 7.375 C4.65736432 10.92854978 4.65736432 10.92854978 6.5 12.9375 C6.995 13.288125 7.49 13.63875 8 14 C9.25949049 12.96593327 9.25949049 12.96593327 9.09765625 10.71484375 C9.08605469 9.79832031 9.07445312 8.88179688 9.0625 7.9375 C9.04896484 6.55884766 9.04896484 6.55884766 9.03515625 5.15234375 C9.02355469 4.44207031 9.01195312 3.73179687 9 3 C8.01 3 7.02 3 6 3 Z " fill="#858585" transform="translate(1218,367)"/>
<path d="M0 0 C1.32 0 2.64 0 4 0 C4.33 4.29 4.66 8.58 5 13 C5.99 12.67 6.98 12.34 8 12 C8 8.37 8 4.74 8 1 C9.65 0.67 11.3 0.34 13 0 C14.99616554 1.99616554 14.40983427 5.81701963 14.5625 8.5625 C14.60568359 9.27341797 14.64886719 9.98433594 14.69335938 10.71679688 C14.79971777 12.47761912 14.90038846 14.2387832 15 16 C13.33324219 15.97679687 13.33324219 15.97679687 11.6328125 15.953125 C8.19545171 15.80331681 8.19545171 15.80331681 5.875 16.75 C4 17 4 17 1.25 15.8125 C-2.29256325 11.38429594 -1.57986935 6.47562345 -1 1 C-0.67 0.67 -0.34 0.34 0 0 Z " fill="#858585" transform="translate(1050,367)"/>
<path d="M0 0 C1.08152344 -0.02578125 2.16304687 -0.0515625 3.27734375 -0.078125 C4.19644531 0.03015625 5.11554687 0.1384375 6.0625 0.25 C8.41020643 3.77155964 8.43919614 5.75771843 8.6875 9.9375 C8.76226563 11.11699219 8.83703125 12.29648437 8.9140625 13.51171875 C8.96304688 14.41535156 9.01203125 15.31898438 9.0625 16.25 C7.25 16.9375 7.25 16.9375 5.0625 17.25 C3.29296875 16.16796875 3.29296875 16.16796875 2.0625 14.25 C1.98828125 11.55078125 1.98828125 11.55078125 2.375 8.5625 C2.49488281 7.56863281 2.61476563 6.57476562 2.73828125 5.55078125 C2.84527344 4.79152344 2.95226562 4.03226562 3.0625 3.25 C1.7425 3.25 0.4225 3.25 -0.9375 3.25 C-1.01404536 7.76617599 -1.03978696 11.84085217 0.0625 16.25 C-4.6875 17.375 -4.6875 17.375 -6.9375 16.25 C-6.96435095 13.77076199 -6.98426547 11.2918116 -7 8.8125 C-7.01256836 7.75192383 -7.01256836 7.75192383 -7.02539062 6.66992188 C-7.03403588 4.86306441 -6.98970011 3.05612397 -6.9375 1.25 C-5.12630181 -0.56119819 -2.43968608 0.03481122 0 0 Z " fill="#858585" transform="translate(970.9375,366.75)"/>
<path d="M0 0 C2.5625 1.5 2.5625 1.5 4 4 C4.78383251 8.02642386 4.67145236 10.95253431 2.4375 14.4375 C-0.80899889 16.51858903 -3.15247539 16.93249957 -7 17 C-9.875 16.125 -9.875 16.125 -12 14 C-13.11773819 10.13540193 -13.6165488 6.57316712 -12.12890625 2.77734375 C-9.5240017 -1.32380355 -4.32910764 -0.53056559 0 0 Z M-5 2 C-5.99 2.66 -6.98 3.32 -8 4 C-8.56397761 8.75001238 -8.56397761 8.75001238 -6.625 12.9375 C-5.04459814 14.18241645 -5.04459814 14.18241645 -3 14 C-1.27782857 11.36609075 -0.99544685 10.07588583 -1.1875 6.875 C-1.74911961 3.69792816 -1.74911961 3.69792816 -5 2 Z " fill="#858585" transform="translate(1212,367)"/>
<path d="M0 0 C3.44652326 2.44128731 4.78056289 3.82966874 5.5625 8 C4.83450185 11.88265681 4.06018871 13.46228253 1 16 C-3.32122258 16.91181761 -6.76793326 16.80084338 -10.5 14.375 C-12.35921047 11.43125008 -12.9288308 9.48729073 -13 6 C-10.17267495 -0.05855368 -6.50446372 -1.09444131 0 0 Z M-7 3 C-7.05399736 4.45792884 -7.09279177 5.91642712 -7.125 7.375 C-7.14820313 8.18710937 -7.17140625 8.99921875 -7.1953125 9.8359375 C-7.21370051 12.21342243 -7.21370051 12.21342243 -5 14 C-4.01 14 -3.02 14 -2 14 C-0.05541538 9.04310084 -0.05541538 9.04310084 -1.25 4.0625 C-1.8275 3.381875 -2.405 2.70125 -3 2 C-5.0745356 1.8509288 -5.0745356 1.8509288 -7 3 Z " fill="#858585" transform="translate(958,367)"/>
<path d="M0 0 C5.75 -0.125 5.75 -0.125 8 1 C9.01529541 3.32671865 10.01488198 5.6603447 11 8 C11.66 8.66 12.32 9.32 13 10 C13.30599063 12.56916657 13.51087087 15.04758384 13.625 17.625 C13.66367187 18.33140625 13.70234375 19.0378125 13.7421875 19.765625 C13.83647724 21.50998524 13.91932891 23.25495691 14 25 C11.36 25 8.72 25 6 25 C6 22 6 22 6.75 18.73828125 C7.05794374 14.13356007 5.57217691 11.78938826 3 8.1875 C1.59506643 6.15126457 0.2812453 4.1205796 -1 2 C-0.67 1.34 -0.34 0.68 0 0 Z " fill="#858585" transform="translate(1009,358)"/>
<path d="M0 0 C0.99 0.66 1.98 1.32 3 2 C3 2.66 3 3.32 3 4 C3.66 4 4.32 4 5 4 C5 6.64 5 9.28 5 12 C3.02 12.99 3.02 12.99 1 14 C1 14.66 1 15.32 1 16 C-3.05017618 16.20594116 -6.12603564 16.27311386 -10 15.0625 C-12.34330965 12.64596192 -12.39565221 11.83486951 -12.5625 8.5625 C-12.36916189 5.51866412 -12.06677159 4.11406814 -10.5 1.4375 C-6.76776425 -0.70853556 -4.28459254 -0.40805643 0 0 Z M-7 3 C-8.33059914 6.99179743 -7.81502739 9.26317891 -6 13 C-4.68 13 -3.36 13 -2 13 C0.30787112 10.17537932 0.30787112 10.17537932 -0.125 6.9375 C-0.70453099 3.91902735 -0.70453099 3.91902735 -2.9375 2.5625 C-5.04085753 1.74259757 -5.04085753 1.74259757 -7 3 Z " fill="#858585" transform="translate(1043,367)"/>
<path d="M0 0 C1.98 0 3.96 0 6 0 C6.66 2.31 7.32 4.62 8 7 C9.4606285 4.35261084 10 3.10551666 10 0 C11.32 0 12.64 0 14 0 C12.14347172 7.83867494 9.9939684 15.57918348 5 22 C3.35 21.67 1.7 21.34 0 21 C0 20.01 0 19.02 0 18 C1.32 17.67 2.64 17.34 4 17 C3.45202436 12.6161949 2.29211812 8.88566453 0.62109375 4.83203125 C0 3 0 3 0 0 Z " fill="#858585" transform="translate(931,367)"/>
<path d="M0 0 C1.37478516 0.01740234 1.37478516 0.01740234 2.77734375 0.03515625 C3.69644531 0.04417969 4.61554688 0.05320312 5.5625 0.0625 C6.27277344 0.07410156 6.98304687 0.08570313 7.71484375 0.09765625 C7.38484375 1.41765625 7.05484375 2.73765625 6.71484375 4.09765625 C5.39484375 4.09765625 4.07484375 4.09765625 2.71484375 4.09765625 C2.71484375 8.05765625 2.71484375 12.01765625 2.71484375 16.09765625 C0.73484375 16.09765625 -1.24515625 16.09765625 -3.28515625 16.09765625 C-3.3120072 13.61841824 -3.33192172 11.13946785 -3.34765625 8.66015625 C-3.36022461 7.59958008 -3.36022461 7.59958008 -3.37304688 6.51757812 C-3.38169213 4.71072066 -3.33735636 2.90378022 -3.28515625 1.09765625 C-2.28515625 0.09765625 -2.28515625 0.09765625 0 0 Z " fill="#858585" transform="translate(1070.28515625,366.90234375)"/>
<path d="M0 0 C2.31 0 4.62 0 7 0 C5.63055898 2.94956528 4.12169591 5.52468811 2 8 C1.34 8 0.68 8 0 8 C0.185625 7.236875 0.37125 6.47375 0.5625 5.6875 C1.22819173 2.91032625 1.22819173 2.91032625 0 0 Z " fill="#858585" transform="translate(1023,359)"/>
<path d="M0 0 C1.32 0 2.64 0 4 0 C4 1.65 4 3.3 4 5 C2.68 5 1.36 5 0 5 C-0.5625 3.0625 -0.5625 3.0625 -1 1 C-0.67 0.67 -0.34 0.34 0 0 Z " fill="#858585" transform="translate(1192,358)"/>
<path d="M0 0 C0.66 0 1.32 0 2 0 C2 0.99 2 1.98 2 3 C1.34 3 0.68 3 0 3 C0 2.01 0 1.02 0 0 Z " fill="#858585" transform="translate(1237,371)"/>
<path d="" fill="#858585" transform="translate(0,0)"/>
</svg>
